<?xml version="1.0" encoding="utf-8"?>
<!-- Generator: Adobe Illustrator 16.0.0, SVG Export Plug-In . SVG Version: 6.00 Build 0)  -->
<!DOCTYPE svg PUBLIC "-//W3C//DTD SVG 1.1//EN" "http://www.w3.org/Graphics/SVG/1.1/DTD/svg11.dtd">
<svg version="1.1" id="Layer_1" xmlns="http://www.w3.org/2000/svg" xmlns:xlink="http://www.w3.org/1999/xlink" x="0px" y="0px"
	 width="200px" height="200px" viewBox="0 0 200 200" enable-background="new 0 0 200 200" xml:space="preserve">
<g>
	<path fill-rule="evenodd" clip-rule="evenodd" fill="#23356E" d="M68.021,98.896c0.162-0.162,0.37-0.143,0.162-0.162
		c-0.658-0.07,0.283,0.404,0.298-0.061c0.031-0.586-0.09-0.566,0.122-0.678c1.002-0.607,2.025-1.176,3.017-1.781
		c0.764-0.465,1.473-1.012,2.211-1.52c2.176-1.467,4.438-2.793,6.731-4.088c1.625-0.941,3.274-1.844,4.874-2.824
		c0.451-0.285,0.967-0.467,1.392-0.801c0.299-0.223,0.527-0.477,0.618-0.84c0.309-1.234,0.759-2.43,1.083-3.676
		c0.238-0.869,0.633-1.75,1.139-2.549c0.167-0.275,0.304-0.588,0.451-0.871c0.045-0.092,0.05-0.193-0.05-0.252
		c-0.086-0.061-0.188-0.031-0.269,0.02c-0.566,0.365-1.219,0.637-1.584,1.244c-0.055,0.092-0.151,0.174-0.248,0.254
		c-1.26,1.063-2.313,2.287-3.396,3.492c-0.85,0.941-1.655,1.904-2.576,2.795c-0.35,0.322-0.764,0.576-1.209,0.789
		c-0.284,0.141-0.572,0.16-0.82-0.063c-0.309-0.293-0.688-0.324-1.098-0.332c-0.865-0.012-1.731,0.059-2.591,0.16
		c-0.901,0.111-1.534,0.617-2.136,1.186c-0.197,0.193-0.344,0.445-0.684,0.475c-0.111,0.012-0.223,0.102-0.309,0.182
		c-0.926,0.73-1.959,1.348-2.789,2.197c-0.5,0.518-1.204,0.801-1.73,1.307c-0.223,0.211-0.481,0.385-0.733,0.576
		c-0.496,0.373-1.088,0.496-1.594,0.152c-0.658-0.445-1.397-0.486-2.126-0.506c-1.943-0.063-3.841-0.375-5.759-0.588
		c-1.427-0.152-2.85-0.273-4.282-0.404c-0.258-0.02-0.496-0.029-0.738-0.102c-0.521-0.172-1.058-0.264-1.61-0.213
		c-0.097,0.01-0.203,0.021-0.298,0c-1.868-0.475-3.796-0.627-5.684-0.971c-1.043-0.182-1.959-0.66-2.986-0.842
		c-0.248-0.039-0.476-0.191-0.44-0.465c0.041-0.303,0.318-0.303,0.577-0.313c0.082,0,0.157-0.012,0.223,0.01
		c0.871,0.313,1.802,0.313,2.703,0.424c1.123,0.131,2.242,0.375,3.381,0.445c0.663,0.029,1.28,0.346,1.958,0.385
		c0.314,0.031,0.633,0.09,0.957,0.09c0.501,0.012,0.977,0.102,1.473,0.164c1.341,0.191,2.703,0.332,4.049,0.475
		c0.445,0.043,0.885,0.082,1.321,0.162c1.306,0.254,2.652,0.305,3.967,0.496c0.76,0.09,1.514,0.254,2.293,0.254
		c0.365,0.01,0.627-0.012,0.835-0.385c0.208-0.385,0.739-0.426,1.139-0.598c0.496-0.213,0.987-0.434,1.442-0.719
		c0.253-0.152,0.597-0.273,0.613-0.639c0.01-0.221,0.223-0.211,0.379-0.271c0.389-0.141,0.789-0.254,1.047-0.607
		c0.142-0.182,0.41-0.152,0.607-0.244c0.182-0.07,0.42-0.111,0.425-0.324c0.015-0.271-0.269-0.293-0.466-0.363
		c-0.456-0.133-0.926-0.172-1.402-0.172c-1.938,0.01-3.872,0.01-5.805,0.02c-0.455,0-0.901-0.039-1.326-0.172
		c-0.167-0.061-0.344-0.121-0.349-0.324c-0.02-0.182,0.152-0.273,0.304-0.344c0.288-0.162,0.582-0.242,0.917-0.283
		c3.016-0.264,6.032-0.477,9.064-0.426c0.501,0.01,0.982-0.08,1.448-0.264c0.349-0.121,0.693-0.242,1.068-0.303
		c0.202-0.031,0.415-0.07,0.521-0.232c0.243-0.375,0.617-0.527,1.032-0.607c0.187-0.031,0.354-0.102,0.451-0.244
		c0.192-0.293,0.516-0.424,0.784-0.617c0.158-0.102,0.37-0.152,0.345-0.395c-0.01-0.152,0.122-0.203,0.237-0.242
		c0.76-0.273,1.306-0.801,1.929-1.256c0.491-0.363,0.92-0.809,1.533-1.053c0.496-0.182,0.749-0.707,1.25-0.961
		c1.432-0.729,2.586-1.832,4.008-2.592c0.668-0.363,1.321-0.729,2.09-0.871c0.374-0.08,0.663-0.271,0.961-0.496
		c0.982-0.738,1.792-1.588,2.616-2.469c0.643-0.668,1.483-1.154,2.085-1.883c0.906-1.094,2.115-1.934,3.077-2.996
		c0.532-0.578,1.255-0.961,1.974-1.346c0.639-0.334,1.235-0.275,1.792,0.162c0.287,0.232,0.552,0.475,0.698,0.799
		c0.587,1.357,1.463,2.58,1.963,3.967c0.036,0.113,0.081,0.244,0.172,0.305c0.35,0.293,0.526,0.668,0.639,1.072
		c0.04,0.152,0.167,0.506,0.358,0.051c0.011-0.01,0.046-0.01,0.071-0.01c0.193,0.041,0.369,0.303,0.566,0.02
		c0.152-0.201-0.029-0.404-0.04-0.607c-0.036-0.463-0.187-0.91-0.157-1.404c0.092-1.268,0.021-2.543-0.029-3.807
		c-0.021-0.578,0.475-1.145,1.083-1.145c0.217,0,0.389,0.092,0.511,0.242c0.166,0.232,0.395,0.457,0.456,0.709
		c0.212,0.891,0.647,1.699,0.87,2.582c0.172,0.729,0.466,1.406,0.708,2.115c0.071,0.182,0.183,0.344,0.38,0.414
		c0.719,0.242,1.433,0.486,2.211,0.76c-0.04-0.365-0.333-0.395-0.454-0.658c0.49,0.072,0.88,0.283,1.274,0.467
		c0.42,0.203,0.765,0.496,1.226,0.828c-0.081-0.424-0.481-0.516-0.563-0.879c0.512,0.232,0.986,0.395,1.2,0.891
		c0.096,0.203,0.273,0.334,0.49,0.404c0.485,0.182,0.981,0.334,1.401,0.627c0.102,0.063,0.294,0.152,0.335,0.029
		c0.192-0.504,0.44-0.191,0.541,0c0.415,0.781,1.215,1.127,1.948,1.521c1.023,0.555,1.908,1.264,2.815,1.951
		c0.131,0.102,0.242,0.225,0.313,0.375c0.257,0.566,0.905,0.83,1.209,1.377c0.111,0.193,0.319,0.08,0.375-0.102
		c0.051-0.182,0.051-0.365,0.081-0.607c0.232,0.092,0.359,0.416,0.668,0.314c0.277-0.09,0.399-0.334,0.521-0.557
		c0.794-1.449,1.685-2.836,2.399-4.324c0.611-1.252,1.314-2.488,2.216-3.602c0.35-0.445,0.714-0.699,1.306-0.576
		c0.121,0.02,0.264,0.059,0.364,0.02c0.836-0.344,1.392,0.121,1.904,0.596c0.621,0.568,1.173,1.195,1.744,1.803
		c0.478,0.508,0.937,1.021,1.408,1.529c0.248,0.264,0.491,0.535,0.864,0.637c0.376,0.09,0.541,0.326,0.659,0.67
		c0.258,0.84,0.445,0.879,1.082,0.242c0.931-0.932,1.833-1.883,2.75-2.824c0.114-0.123,0.256-0.254,0.256-0.416
		c-0.003-0.334,0.128-0.445,0.467-0.322c0.029,0,0.102-0.041,0.136-0.063c0.598-0.506,1.235-0.98,1.686-1.629
		c0.051-0.072,0-0.172,0.123-0.223c0.891-0.334,1.427-1.023,1.946-1.721c0.089-0.121,0.214-0.182,0.326-0.264
		c0.309-0.232,0.643-0.445,0.906-0.707c1.235-1.287,2.702-2.33,3.915-3.615c0.613-0.648,1.246-1.266,1.87-1.893
		c0.114-0.121,0.21-0.264,0.282-0.344c0.214,0.07,0.182,0.141,0.142,0.191c-1.048,1.174-2.024,2.41-3.235,3.441
		c-1.73,1.479-3.35,3.037-4.984,4.598c-1.507,1.436-3.011,2.873-4.499,4.33c-0.598,0.578-1.16,1.176-1.71,1.781
		c-0.461,0.527-0.41,0.537-0.088,1.133c0.345,0.619,0.841,1.094,1.307,1.602c1.563,1.701,3.185,3.359,4.809,5.01
		c1.371,1.389,2.793,2.754,4.318,4.02c0.555,0.455,1.082,0.949,1.653,1.387c0.072,0.059,0.157,0.143,0.182,0.223
		c0.194,0.627,0.786,0.93,1.245,1.336c0.242,0.213,0.482,0.324,0.8,0.152c0.376-0.182,0.766-0.123,1.166-0.031
		c1.173,0.273,2.381,0.465,3.53,0.809c1.308,0.387,2.662,0.559,3.929,1.055c0.496,0.201,1.054,0.273,1.584,0.395
		c0.288,0.07,0.576,0.141,0.856,0.223c0.848,0.252,1.675,0.588,2.555,0.748c0.456,0.092,0.896,0.273,1.313,0.486
		c0.373,0.193,0.746,0.344,1.187,0.385c0.168,0.01,0.365,0.051,0.488,0.143c0.536,0.373,1.083,0.313,1.693,0.172
		c0.589-0.143,1.232-0.092,1.843,0.008c1.419,0.234,2.846,0.447,4.262,0.689c0.522,0.082,1.021,0.082,1.544-0.01
		c1.2-0.201,2.414-0.242,3.63-0.334c1.189-0.08,2.374-0.213,3.525-0.486c0.579-0.141,1.171-0.203,1.758-0.305
		c0.253-0.051,0.491-0.018,0.729,0.082c0.187,0.092,0.319,0.213,0.327,0.426c0.006,0.223-0.141,0.344-0.344,0.404
		c-0.136,0.041-0.277,0.092-0.413,0.131c-2.445,0.84-4.944,1.387-7.577,1.285c-0.461-0.02-0.941,0-1.408,0
		c-0.354,0-0.688,0.043-0.997,0.215c-0.262,0.162-0.561,0.252-0.848,0.102c-1.149-0.578-2.44-0.609-3.676-0.842
		c-1.093-0.201-2.227-0.242-3.234-0.748c-0.12-0.051-0.305-0.082-0.435-0.051c-0.896,0.213-1.721-0.092-2.547-0.314
		c-1.726-0.445-3.462-0.859-5.161-1.355c-1.595-0.477-3.219-0.76-4.792-1.285c-1.565-0.508-3.2-0.83-4.764-1.377
		c-0.229-0.082-0.485-0.102-0.728-0.152c-0.259-0.041-0.473,0.02-0.686,0.193c-0.47,0.373-0.491,0.344-0.971-0.041
		c-1.123-0.891-2.057-1.934-2.961-3.008c-0.647-0.789-1.387-1.506-2.08-2.268c-1.2-1.324-2.475-2.59-3.664-3.916
		c-0.974-1.084-2.046-2.086-3.067-3.119c-0.338-0.344-0.658-0.697-1.019-1.021c-0.39-0.354-0.581-0.354-0.931-0.01
		c-1.24,1.234-2.52,2.418-3.734,3.676c-0.911,0.949-1.923,1.791-2.733,2.832c-0.207,0.273-0.318,0.488-0.223,0.82
		c0.121,0.406,0,0.75-0.334,1.072c-0.431,0.428-0.391,0.68,0.03,1.094c0.385,0.375,0.567,0.84,0.567,1.336
		c0.004,0.355,0.161,0.436,0.475,0.445c0.122,0.012,0.254,0.063,0.37,0.041c0.84-0.109,1.665,0.133,2.5,0.133
		c0.628,0,1.226,0.152,1.818,0.322c0.603,0.152,0.733,0.508,0.439,1.014c-0.27,0.455-0.264,0.525,0.248,0.648
		c0.769,0.17,1.553,0.271,2.339,0.404c2.003,0.334,4.032,0.504,6.063,0.668c2.307,0.201,4.555,0.668,6.787,1.256
		c1.867,0.484,3.675,1.133,5.485,1.76c0.653,0.232,1.219,0.617,1.889,0.811c0.142,0.051,0.259,0.141,0.379,0.221
		c0.27,0.184,0.573,0.387,0.405,0.74c-0.146,0.314-0.491,0.252-0.79,0.232c-1.128-0.121-2.131-0.596-3.152-1.012
		c-2.277-0.932-4.61-1.73-7.057-2.188c-1.821-0.344-3.664-0.576-5.525-0.656c-1.314-0.07-2.638-0.121-3.937-0.305
		c-2.766-0.404-5.538-0.799-8.236-1.527c-0.899-0.244-1.847-0.346-2.718-0.73c-0.45-0.203-0.809-0.598-1.279-0.678
		c-0.451-0.061-0.892,0.264-1.356,0.295c-0.725,0.049-1.403-0.092-2.024-0.396c-0.492-0.23-1.033-0.332-1.524-0.545
		c-0.304-0.131-0.445,0-0.586,0.23c-0.629,1.033-1.119,2.137-1.944,3.039c-0.091,0.1-0.142,0.252-0.156,0.383
		c-0.076,0.932-0.806,1.479-1.519,1.934c-0.891,0.578-1.124,1.104-0.643,2.016c0.157,0.293,0.334,0.576,0.541,0.83
		c0.986,1.193,1.66,2.58,2.581,3.814c0.937,1.287,1.848,2.582,2.779,3.859c0.43,0.596,0.869,1.184,1.325,1.77
		c0.922,1.205,1.813,2.43,2.783,3.604c1.059,1.275,2.035,2.633,3.219,3.816c0.203,0.203,0.36,0.455,0.37,0.738
		c0.016,0.416,0.259,0.689,0.546,0.953c1.164,1.072,2.324,2.164,3.486,3.236c0.646,0.588,1.195,1.246,1.824,1.824
		c0.971,0.9,2.003,1.74,2.961,2.641c1.048,0.992,2.014,2.045,3.021,3.066c1.123,1.145,2.347,2.207,3.507,3.311
		c1.274,1.234,2.403,2.592,3.558,3.928c0.304,0.344,0.547,0.77,0.739,1.195c0.151,0.344,0.136,0.637-0.166,0.891
		c-0.27,0.232-0.68,0.264-1.034,0.041c-0.307-0.193-0.611-0.406-0.864-0.66c-0.491-0.496-0.941-1.01-1.408-1.527
		c-0.237-0.271-0.496-0.506-0.835-0.678c-0.35-0.152-0.525-0.375-0.456-0.77c0.083-0.486-0.151-0.891-0.509-1.254
		c-0.852-0.861-1.713-1.73-2.516-2.643c-1.114-1.246-2.274-2.43-3.579-3.492c-0.376-0.293-0.647-0.709-1.002-1.033
		c-2.166-2.023-4.23-4.17-6.454-6.164c-0.248-0.223-0.454-0.486-0.637-0.76c-0.283-0.445-0.658-0.82-1.17-1.043
		c-0.268-0.131-0.485-0.324-0.668-0.547c-0.895-1.021-1.74-2.084-2.428-3.227c-1.412-2.299-2.987-4.484-4.577-6.662
		c-0.784-1.072-1.639-2.094-2.398-3.178c-0.962-1.357-2.009-2.643-3.011-3.959c-0.243-0.324-0.421-0.688-0.663-1.012
		c-0.269-0.334-0.502-0.668-0.967-0.809c-0.238-0.082-0.364-0.314-0.485-0.518c-0.27-0.416-0.668-0.729-1.079-1.092
		c-0.308,0.344-0.647,0.627-0.87,0.98c-0.279,0.467-0.744,0.658-1.225,0.852c-0.304,0.131-0.623,0.121-0.932-0.031
		c-0.283-0.143-0.597-0.254-0.855-0.414c-0.374-0.266-0.733-0.467-1.229-0.324c-0.106,0.02-0.248-0.02-0.354-0.07
		c-0.795-0.375-1.635-0.67-2.267-1.297c-0.988-0.982-2.029-1.902-3.053-2.854c-0.607-0.568-0.749-0.508-1.468-0.111
		c-1.351,0.727-2.54,1.689-3.871,2.449c-0.223,0.121-0.436,0.242-0.628,0.385c-1.022,0.779-2.192,1.336-3.351,1.924
		c-0.891,0.434-1.756,0.949-2.596,1.486c-1.033,0.648-2.076,1.244-3.295,1.568c-0.506,0.123-0.972,0.445-1.427,0.719l-1.24,0.984
		l-2.435,0.514l-1.928,0.932l-2.809,0.111l-3.568,0.102c0,0-3.457,0-4.013,0.416c-0.567,0.424-3.133,0.699-3.133,0.699l-1.564-1.004
		l-1.265-0.941v-1.256v-0.93l1.821-2.188h0.668L68.021,98.896z M103.28,74.836c0.047-0.203-0.374-0.211-0.161-0.303
		c0.324-0.152,0.237-0.285,0.122-0.477c-0.122-0.213-0.264-0.406-0.33-0.627c-0.5-1.752-1.265-3.393-2.322-4.91
		c-0.263-0.375-0.344-0.385-0.652-0.051c-0.366,0.406-0.74,0.801-1.135,1.184c-0.835,0.83-1.766,1.57-2.51,2.471
		c-0.673,0.83-1.559,1.477-2.298,2.258c-0.703,0.707-1.422,1.416-2.181,2.084c-0.466,0.404-0.461,0.438-0.036,0.893
		c1.215,1.314,2.435,2.621,3.665,3.926c0.46,0.486,0.794,0.527,1.447,0.242c0.223-0.09,0.446-0.191,0.664-0.313
		c0.825-0.445,1.675-0.891,2.495-1.367c0.36-0.211,0.79-0.332,1.083-0.648c-0.248-0.281-0.55-0.129-0.794-0.201
		c-0.04-0.436,0.122-0.656,0.592-0.809c0.481-0.162,0.967-0.305,1.468-0.406c-0.01-0.15-0.116-0.172-0.212-0.201
		c-0.093-0.041-0.238,0.02-0.293-0.131c0.667-0.396,0.667-0.457,0.085-0.924c-0.426-0.344-0.829-0.699-1.128-1.152
		c0.313,0.172,0.566,0.395,0.824,0.627c0.228,0.213,0.461,0.424,0.754,0.566c0.344,0.162,0.415-0.131,0.562-0.303
		c0.081-0.121,0.183-0.252,0-0.354c-0.248-0.143-0.576-0.164-0.638-0.529c-0.02-0.109-0.409-0.018-0.439-0.271
		c-0.03-0.213,0.172-0.334,0.278-0.477c0.055-0.08,0.025-0.242,0.223-0.252C102.648,74.574,102.852,74.867,103.28,74.836z
		 M132.297,83.439c0.354-0.484,0.911-0.729,1.022-1.305c0.01-0.07,0.035-0.152,0.126-0.133c0.532,0.133,0.647-0.334,0.916-0.555
		c0.345-0.295,0.679-0.619,0.982-0.953c0.484-0.525,1.21-0.9,1.427-1.641c0.021-0.068,0.05-0.131,0.139-0.109
		c0.338,0.109,0.424-0.184,0.586-0.324c0.536-0.508,0.542-0.588,0.04-1.156c-0.274-0.322-0.618-0.605-0.885-0.941
		c-1.038-1.293-2.273-2.438-3.382-3.682c-0.304-0.326-0.349-0.326-0.709-0.012c-0.45,0.406-0.86,0.83-1.164,1.348
		c-1.467,2.447-2.879,4.918-4.24,7.408c-0.365,0.658-0.314,1.145,0.288,1.629c0.358,0.285,0.597,0.801,1.184,0.75
		c0.364-0.029,0.714,0.02,1.119,0.152c-0.021-0.385,0.217-0.699,0.065-1.012c-0.248-0.506-0.035-0.963,0.102-1.418
		c0.106-0.395,0.399-0.576,0.805-0.576c0.396-0.01,0.708,0.182,0.85,0.557c0.07,0.191,0.106,0.395,0.127,0.605
		C131.735,82.539,131.892,82.975,132.297,83.439z M89.435,85.404c0.188,0.08,0.283,0.051,0.364,0
		c1.114-0.699,2.329-1.225,3.477-1.863c0.172-0.082,0.314-0.223,0.461-0.344c0.212-0.184,0.188-0.375-0.035-0.527
		c-0.77-0.535-1.422-1.213-2.374-1.508c-0.587-0.182-0.769-0.15-0.921,0.406c-0.176,0.596-0.359,1.193-0.471,1.811
		C89.798,84.057,89.45,84.686,89.435,85.404z M83.473,81.75c-0.228-0.031-0.339,0.061-0.461,0.143
		c-0.48,0.332-0.957,0.666-1.438,0.99c-0.946,0.658-1.918,1.297-2.864,1.975c-0.258,0.182-0.593,0.404-0.466,0.789
		c0.051,0.172,0.759,0.172,1.033-0.051c0.461-0.354,1.012-0.586,1.432-0.992c0.785-0.758,1.604-1.508,2.409-2.266
		C83.275,82.186,83.523,82.053,83.473,81.75z M131.36,82.822c-0.096,0.242-0.162,0.416-0.223,0.578
		c-0.01,0.029-0.024,0.049-0.035,0.07c-0.111,0.213-0.107,0.404,0.166,0.506c0.233,0.07,0.481-0.092,0.527-0.354
		C131.841,83.309,131.739,83.045,131.36,82.822z M83.918,81.576c0.476-0.221,0.901-0.484,1.058-1
		C84.581,80.869,84.064,81.041,83.918,81.576z"/>
	<path fill-rule="evenodd" clip-rule="evenodd" fill="#23356E" d="M80.092,112.592c-0.041,0.051-0.091,0.152-0.167,0.244
		c-1.038,1.244-2.07,2.479-3.259,3.604c-0.451,0.424-0.855,0.9-1.285,1.336c-1.24,1.297-2.48,2.57-3.71,3.877
		c-1.22,1.295-2.607,2.459-3.74,3.846c-0.283,0.334-0.395,0.324-0.79,0.051c-0.324-0.223-0.466-0.203-0.466,0.131
		c-0.016,0.84-0.698,1.205-1.286,1.57c-1.447,0.9-2.864,1.82-4.231,2.822c-0.319,0.234-0.637,0.416-1.053,0.479
		c-0.37,0.049-0.713,0.18-1.047,0.344c-0.815,0.383-1.609,0.84-2.455,1.152c-1.266,0.465-2.561,0.871-3.866,1.215
		c-0.537,0.143-1.129,0.113-1.68,0.273c-0.294,0.092-0.613,0.041-0.78-0.232c-0.177-0.314-0.04-0.598,0.177-0.83
		c0.167-0.191,0.405-0.273,0.648-0.344c0.324-0.092,0.668-0.162,1.007-0.234c1.488-0.273,2.905-0.729,4.271-1.365
		c0.886-0.406,1.777-0.82,2.713-1.145c1.108-0.373,1.984-1.123,2.95-1.721c1.236-0.758,2.4-1.629,3.71-2.297
		c0.85-0.438,1.528-1.063,2.09-1.752c0.521-0.637,1.149-1.154,1.715-1.721c1.64-1.629,3.442-3.127,4.879-4.939
		c0.131-0.152,0.318-0.283,0.475-0.436c0.451-0.455,0.881-0.941,1.301-1.406c0.846-0.941,1.817-1.771,2.749-2.643
		c0.283-0.273,0.658-0.07,0.972-0.141C80.025,112.309,80.096,112.432,80.092,112.592z"/>
	<path fill-rule="evenodd" clip-rule="evenodd" fill="#23356E" d="M40.038,88.684c-0.531-0.031-0.992-0.385-1.533-0.547
		c-1.2-0.365-2.309-0.961-3.396-1.529c-1.214-0.637-2.536-1.051-3.71-1.75c-0.445-0.283-0.971-0.445-1.473-0.658
		c-0.653-0.264-1.159-0.709-1.746-1.033c-0.091-0.051-0.167-0.111-0.223-0.182c-0.096-0.092-0.126-0.201-0.04-0.303
		c0.071-0.082,0.217-0.123,0.268-0.072c0.546,0.578,1.366,0.264,1.989,0.537c0.886,0.414,1.848,0.658,2.672,1.184
		c0.658,0.416,1.402,0.699,2.121,1.012c0.602,0.266,1.229,0.496,1.771,0.871c0.081,0.051,0.177,0.121,0.268,0.121
		c1.043,0.063,1.766,0.779,2.692,1.094c0.294,0.102,0.562,0.293,0.765,0.537c0.116,0.162,0.223,0.334,0.147,0.518
		C40.524,88.703,40.286,88.662,40.038,88.684z"/>
	<path fill-rule="evenodd" clip-rule="evenodd" fill="#23356E" d="M57.595,86.295c-0.754-0.172-1.635-0.314-2.475-0.586
		c-1.467-0.438-2.9-0.953-4.348-1.449c-0.551-0.191-0.981-0.535-1.372-0.941c-0.167-0.172-0.344-0.363-0.217-0.607
		c0.157-0.273,0.44-0.303,0.719-0.264c0.618,0.092,1.215,0.244,1.761,0.547c1.261,0.709,2.647,1.154,3.989,1.701
		c0.814,0.334,1.625,0.697,2.409,1.092c0.132,0.063,0.273,0.152,0.233,0.316c-0.031,0.16-0.197,0.18-0.35,0.191
		C57.874,86.295,57.792,86.295,57.595,86.295z"/>
	<path fill-rule="evenodd" clip-rule="evenodd" fill="#23356E" d="M17.445,75.939c0.076,0.021,0.152,0.039,0.217,0.061
		c1.24,0.525,2.424,1.154,3.553,1.861c1.24,0.771,2.5,1.51,3.75,2.26c0.461,0.283,0.916,0.576,1.038,1.123
		c0.041,0.131,0.086,0.281-0.061,0.383c-0.122,0.092-0.289,0.063-0.415-0.008c-0.476-0.264-0.967-0.488-1.396-0.801
		c-1.605-1.176-3.386-2.084-5.042-3.178c-0.526-0.344-1.022-0.729-1.529-1.104c-0.111-0.08-0.202-0.215-0.263-0.324
		C17.237,76.092,17.313,75.99,17.445,75.939z"/>
	<path fill-rule="evenodd" clip-rule="evenodd" fill="#23356E" d="M16.554,74.877c-0.02,0.201-0.152,0.273-0.359,0.223
		c-0.243-0.063-0.486-0.164-0.648-0.324c-1.073-1.023-2.363-1.832-3.279-3.006c-0.071-0.092-0.167-0.184-0.202-0.285
		c-0.345-1.02-1.109-1.791-1.802-2.59c-0.213-0.234-0.364-0.496-0.456-0.789c-0.03-0.092-0.041-0.184,0.036-0.264
		c0.106-0.102,0.228-0.041,0.334,0.02c0.436,0.232,0.77,0.568,1.063,0.941c0.876,1.115,1.656,2.277,2.779,3.209
		c0.845,0.709,1.569,1.529,2.277,2.369C16.417,74.523,16.554,74.664,16.554,74.877z"/>
	<path fill-rule="evenodd" clip-rule="evenodd" fill="#23356E" d="M43.717,79.34c-0.815-0.172-1.458-0.668-2.07-1.174
		c-0.207-0.162-0.385-0.363-0.541-0.566c-0.111-0.133-0.122-0.303,0.03-0.445c0.142-0.121,0.344-0.172,0.471-0.051
		c0.719,0.656,1.62,1.123,2.161,1.943C43.818,79.129,43.833,79.219,43.717,79.34z"/>
	<path fill-rule="evenodd" clip-rule="evenodd" fill="#23356E" d="M38.762,73.854c-0.005,0.203-0.055,0.334-0.203,0.395
		c-0.162,0.063-0.309,0.012-0.41-0.102c-0.557-0.615-1.063-1.273-1.437-2.014c-0.056-0.111-0.086-0.223,0.025-0.324
		c0.096-0.08,0.223-0.08,0.344-0.02c0.121,0.07,0.243,0.152,0.359,0.232c0.506,0.426,0.85,0.963,1.199,1.498
		C38.717,73.633,38.737,73.773,38.762,73.854z"/>
	<path fill-rule="evenodd" clip-rule="evenodd" fill="#23356E" d="M103.226,74.836c-0.425,0.031-0.628-0.262-0.87-0.455
		c-0.197,0.01-0.146,0.172-0.218,0.252c-0.117,0.143-0.298,0.264-0.278,0.477c0.031,0.254,0.42,0.162,0.439,0.271
		c0.057,0.365,0.39,0.387,0.638,0.529c0.183,0.102,0.092,0.232,0,0.354c-0.142,0.172-0.228,0.465-0.562,0.303
		c-0.288-0.143-0.526-0.354-0.754-0.566c-0.252-0.232-0.506-0.455-0.824-0.627c0.299,0.453,0.702,0.809,1.133,1.152
		c0.577,0.467,0.577,0.527-0.09,0.924c0.051,0.15,0.201,0.09,0.293,0.131c0.096,0.029,0.202,0.051,0.212,0.201
		c-0.496,0.102-0.986,0.244-1.468,0.406c-0.475,0.152-0.632,0.373-0.592,0.809c0.248,0.072,0.552-0.08,0.794,0.201
		c-0.288,0.316-0.722,0.438-1.082,0.648c-0.82,0.477-1.666,0.922-2.5,1.367c-0.212,0.121-0.43,0.223-0.653,0.313
		c-0.658,0.285-0.992,0.244-1.453-0.242c-1.239-1.305-2.45-2.611-3.659-3.926c-0.42-0.455-0.43-0.488,0.031-0.893
		c0.759-0.668,1.483-1.377,2.171-2.084c0.75-0.781,1.635-1.428,2.313-2.258c0.734-0.9,1.665-1.641,2.505-2.471
		c0.395-0.383,0.77-0.777,1.144-1.184c0.304-0.334,0.39-0.324,0.637,0.051c1.063,1.518,1.828,3.158,2.333,4.91
		c0.062,0.221,0.202,0.414,0.324,0.627c0.115,0.191,0.197,0.324-0.127,0.477C102.852,74.625,103.28,74.633,103.226,74.836z"/>
	<path fill-rule="evenodd" clip-rule="evenodd" fill="#23356E" d="M132.252,83.439c-0.4-0.465-0.567-0.9-0.608-1.367
		c-0.015-0.211-0.056-0.414-0.127-0.605c-0.141-0.375-0.449-0.566-0.85-0.557c-0.405,0-0.693,0.182-0.811,0.576
		c-0.131,0.455-0.344,0.912-0.091,1.418c0.147,0.313-0.09,0.627-0.07,1.012c-0.405-0.133-0.749-0.182-1.119-0.152
		c-0.586,0.051-0.819-0.465-1.179-0.75c-0.607-0.484-0.653-0.971-0.293-1.629c1.365-2.49,2.773-4.961,4.24-7.408
		c0.304-0.518,0.714-0.941,1.17-1.348c0.354-0.314,0.405-0.314,0.698,0.012c1.113,1.244,2.349,2.389,3.392,3.682
		c0.267,0.336,0.601,0.619,0.88,0.941c0.502,0.568,0.502,0.648-0.045,1.156c-0.152,0.141-0.243,0.434-0.581,0.324
		c-0.088-0.021-0.118,0.041-0.139,0.109c-0.217,0.74-0.937,1.115-1.427,1.641c-0.31,0.334-0.643,0.658-0.982,0.953
		c-0.263,0.221-0.379,0.688-0.916,0.555c-0.091-0.02-0.11,0.063-0.126,0.133C133.162,82.711,132.604,82.955,132.252,83.439z"/>
	<path fill-rule="evenodd" clip-rule="evenodd" fill="#23356E" d="M89.384,85.404c0.025-0.719,0.37-1.348,0.496-2.025
		c0.116-0.617,0.293-1.215,0.471-1.811c0.167-0.557,0.339-0.588,0.921-0.406c0.957,0.295,1.609,0.973,2.379,1.508
		c0.223,0.152,0.243,0.344,0.035,0.527c-0.146,0.121-0.288,0.262-0.456,0.344c-1.148,0.639-2.363,1.164-3.477,1.863
		C89.672,85.455,89.571,85.484,89.384,85.404z"/>
	<path fill-rule="evenodd" clip-rule="evenodd" fill="#23356E" d="M83.427,81.75c0.046,0.303-0.202,0.436-0.364,0.588
		c-0.8,0.758-1.609,1.508-2.399,2.266c-0.425,0.406-0.982,0.639-1.438,0.992c-0.273,0.223-0.982,0.223-1.037,0.051
		c-0.117-0.385,0.217-0.607,0.475-0.789c0.937-0.678,1.908-1.316,2.87-1.975c0.476-0.324,0.947-0.658,1.428-0.99
		C83.083,81.811,83.194,81.719,83.427,81.75z"/>
	<path fill-rule="evenodd" clip-rule="evenodd" fill="#23356E" d="M131.305,82.822c0.384,0.223,0.491,0.486,0.44,0.801
		c-0.046,0.262-0.294,0.424-0.521,0.354c-0.279-0.102-0.283-0.293-0.172-0.506c0.016-0.021,0.025-0.041,0.036-0.07
		C131.152,83.238,131.214,83.064,131.305,82.822z"/>
	<path fill-rule="evenodd" clip-rule="evenodd" fill="#23356E" d="M83.867,81.576c0.151-0.535,0.658-0.707,1.058-1
		C84.768,81.092,84.348,81.355,83.867,81.576z"/>
	<path fill-rule="evenodd" clip-rule="evenodd" fill="#23356E" d="M78.689,111.936c0.85-0.426,1.523-1.055,2.09-1.754
		c0.517-0.625,1.148-1.143,1.721-1.709c1.635-1.641,3.442-3.129,4.879-4.939c0.131-0.162,0.318-0.295,0.471-0.436
		c0.455-0.455,0.88-0.941,1.305-1.418c0.84-0.941,1.822-1.77,2.749-2.641c0.289-0.273,0.658-0.061,0.977-0.143
		c0.082-0.01,0.146,0.111,0.146,0.264c-0.03,0.061-0.086,0.162-0.167,0.242c-1.033,1.246-2.065,2.492-3.254,3.613
		c-0.451,0.426-0.855,0.891-1.285,1.338c-1.24,1.285-2.485,2.559-3.71,3.865s-2.611,2.459-3.74,3.846
		c-0.284,0.336-0.4,0.336-0.795,0.063c-0.319-0.232-0.465-0.213-0.465,0.121"/>
</g>
</svg>
