<?xml version="1.0" encoding="utf-8"?>
<!-- Generator: Adobe Illustrator 16.0.0, SVG Export Plug-In . SVG Version: 6.00 Build 0)  -->
<!DOCTYPE svg PUBLIC "-//W3C//DTD SVG 1.1//EN" "http://www.w3.org/Graphics/SVG/1.1/DTD/svg11.dtd">
<svg version="1.1" id="Layer_1" xmlns="http://www.w3.org/2000/svg" xmlns:xlink="http://www.w3.org/1999/xlink" x="0px" y="0px"
	 width="200px" height="200px" viewBox="0 0 200 200" enable-background="new 0 0 200 200" xml:space="preserve">
<path fill="#23356E" d="M125.104,125.269c0.496-0.299,36.348-10.446,27.35-50.88c0,0-0.424-1.336-0.182-2.374
	c0.251-1.033-0.242-2.217-0.365-3.26c0.305-1.032,0.424-3.775,0.424-4.291s0.192-1.781,0.192-1.781s0.354-0.739,0.354-0.958
	c0-0.222,0.254-1.336,0.134-2.075c-0.134-0.744-0.739-3.405-0.8-3.78c0-0.293,0.496,0.668,0-0.293
	c-0.485-0.967-4.283-13.482-16.218-8.371c-0.12-0.142-1.467,1.479-1.71,1.625c-0.242,0.156-1.043,0.52-1.6,1.704
	c-0.546,1.189-0.668,3.488-2.196,4.596c-1.103,0.815-8.502,2.292-7.339,8.437c0.183,0.38,0.183,0.38,0.183,0.38
	s2.136-0.972,2.875-0.668c0.729,0.288,2.743-1.043,4.16-1.478c1.225-0.376,5.445,1.326,4.646,4.883
	c-0.605,0.814-2.813,2.515-3.177,4.368c-0.608,0.222-5.75,3.037-11.196,7.257c-1.226,0.744-19.222,7.85-29.921,23.261
	c-1.225,0.812-3.249,1.55-4.161,2.663c-0.921,1.108-13.098,9.109-14.758,10.445c-0.972,1.033-2.753,3.107-0.911,2.961
	c0.86-0.182,1.478-0.501,1.842-0.713c-2.531,1.742-18.028,12.318-25.032,16.191c-1.043,0.744-1.529,1.482-1.225,1.563
	c0.304,0.066,0.911-0.152,0.911-0.152l-0.142,0.082l-1.144,0.656c0,0,0.557,0.518,0.861,0.589c0.313,0.075,8.877-4.073,12.784-3.994
	c-0.607,0.664-1.649,2.065-1.649,2.065s1.286-0.064,1.589-0.064c0.314,0,2.946-1.189,3.988-1.483
	c1.032-0.294,3.786-0.744,3.665-0.224c-0.122,0.518,3.795-0.218,5.759-1.037c1.954-0.814,15.659-4.297,16.824-4.074
	c1.164,0.217,1.528,2.15,2.51,1.928c0.971-0.223,5.324-0.07,6.063-0.07c0.729,0,1.771-0.299,1.153,0
	c-0.606,0.293-0.182,0.439-0.182,0.439s2.45-0.369,2.692-0.521c0.243-0.141-1.164-0.516,0.678-0.141
	c1.479,0.293,7.198,1.609,12.795,0.42c-0.111,0.738-0.192,1.59-0.142,2.211c0.112,0.628,0.163,0.693,0.526,1.65
	c0.313,0.982,1.762,10.766,1.599,14.424c-0.161,0.355-0.708,1.346-0.657,1.768c-0.081-0.062-0.273,0.46-0.242,0.693
	c0.051,0.04,0.273-0.031,0.273-0.031s0.516,0.461,0.738-0.262c-0.112,0.561-0.112,0.824,0.021,1.184
	c0.081,0.369-0.324,1.68,0.657,2.075c0.598,0.101,1.326-0.102,1.711-0.136c0.151-0.012,0.921-0.042,1.843-0.057
	c0,0.496,0.08,1.072,0.668,1.314c0.598,0.097,1.336-0.102,1.711-0.131c0.384-0.035,4.575-0.168,5.475,0.029
	c0.922,0.164,2.472,0.265,2.957,0.102c0.323,0.037,0.688-0.102,0.87-0.399c0.111,0.036,0.76,0.202,0.76,0.202
	s0.142-0.268-0.102-0.43c0.102-0.293,1.305-0.824,1.63-0.855c0.322-0.029,1.112-0.268,1.112-0.268s0.304,0,0.387,0
	c0.079,0,1.051,0.166,1.051,0.166s-0.051,0.133,0.224,0c0.272-0.131,0.435-0.131,0.598-0.221c0.162-0.107,0.464-0.462,0.271-0.73
	c-0.141-0.268,0.901,0.031,1.115,0.133c0.191-0.036-0.032-1.382-2.744-0.861c-0.131,0-2.126-0.061-2.126-0.061l3.513-0.693
	c0,0,0.677-0.132,0.901,0.065c-0.142-0.136-0.254-1.054-2.502-0.424c-0.231,0-1.376,0.063-1.76,0.091
	c-0.112-0.062-0.254-0.107-0.424-0.146c-0.377-0.178-1.064-0.432-1.764-0.411c-0.413,0.017-1.071,0.208-1.719,0.411
	c-0.273-0.012-0.467-0.017-0.467-0.017l3.503-0.688c0,0,0.688-0.135,0.899,0.063c-0.131-0.129-0.243-1.054-2.499-0.432
	c-0.272,0-1.873,0.102-1.873,0.102s-1.012-0.592-2.075-0.556c-0.84,0.034-2.773,0.823-3.37,0.858
	c-0.598,0.027-0.759-0.035-0.841-0.035c-0.02,0-0.051,0.006-0.091,0.006c-0.111-0.187-0.172-0.344-0.172-0.467
	c0-0.232-0.03-1.314-0.132-1.847c-0.11-0.521-1.478-9.642-1.417-10.855c0.101-0.563,0.891-3.331,0.436-4.181
	c-0.598-0.233-1.226-1.285-1.205-2.343c0.03-1.054,0.151-1.534,0.365-1.874C123.452,126.676,124.616,125.571,125.104,125.269z
	 M118.544,128.225c0.333-0.137,0.668-0.274,0.992-0.441c0.364,0.076-0.123,1.119-0.123,1.119l0.193-0.086
	c0,0,0.375-0.43,0.567-0.299c-0.031,0.08-0.233,0.996-0.366,2.02c-0.02-0.086-0.04-0.152-0.08-0.208
	C119.182,130.111,118.604,129.195,118.544,128.225z M120.709,145.371c-0.11-0.525-1.468-9.646-1.417-10.86
	c0.062-0.28,0.284-1.109,0.436-1.984c0.102,0.542,0.173,0.652,0.496,1.558c0.334,0.978,1.762,10.68,1.61,14.369
	c-0.082-0.102-0.203-0.172-0.396-0.187c-0.374-0.461-0.597-0.821-0.597-1.054C120.842,146.981,120.821,145.897,120.709,145.371z"/>
</svg>
