<?xml version="1.0" encoding="utf-8"?>
<!-- Generator: Adobe Illustrator 16.0.0, SVG Export Plug-In . SVG Version: 6.00 Build 0)  -->
<!DOCTYPE svg PUBLIC "-//W3C//DTD SVG 1.1//EN" "http://www.w3.org/Graphics/SVG/1.1/DTD/svg11.dtd">
<svg version="1.1" id="Layer_1" xmlns="http://www.w3.org/2000/svg" xmlns:xlink="http://www.w3.org/1999/xlink" x="0px" y="0px"
	 width="200px" height="200px" viewBox="0 0 200 200" enable-background="new 0 0 200 200" xml:space="preserve">
<path fill="#23356E" d="M78.08,155.538c0.881-6.52,1.863-14.444,1.863-14.444s0.102,5.78,1.852,5.679
	c1.742-0.092,6.651,0.374,6.763-6.519c0.071-4.018-0.051-5.437-0.162-5.922c0.921,1.274,5.749,7.835,8.907,9.09
	c0,0,0.86,0.445,2.673,0.445l0,0c0.009,0,0.03,0,0.03,0c0.01,0,0.01,0,0.02,0l0,0c1.822,0,2.693-0.445,2.693-0.445
	c3.138-1.255,7.977-7.815,8.897-9.09c-0.111,0.485-0.233,1.904-0.173,5.922c0.112,6.893,5.021,6.427,6.772,6.519
	c1.74,0.102,1.853-5.679,1.853-5.679s0.981,7.925,1.852,14.444c0.882,6.519,4.707,7.269,7.431,7.167
	c2.732-0.091,1.417-5.123,0.759-11.551c-0.648-6.427-8.726-29.525-8.948-30.003c-0.213-0.454-0.76-2.419-0.76-2.792
	c0-0.365,1.631,0.84,4.039,2.521c2.399,1.669,9.719,6.984,10.153,7.633c0.435,0.657,0.759,1.396,1.527,1.396
	c0.76,0,2.613-1.942,2.512-2.875c-0.111-0.932-1.752-0.566-2.621-0.566c-0.882,0-8.291-5.122-10.487-6.61
	c-2.178-1.497-4.363-4.008-6.104-7.084c-1.751-3.078-5.567-11.833-5.567-12.108c0-0.282,1.742,0,3.381,0.376
	c1.64,0.364,2.945,0.83,6.438,0.364c3.492-0.465,5.902-2.044,8.078-2.146c2.188-0.092,6.985,0.192,8.412,0.748
	c1.427,0.566,2.944,0.933,2.944-0.556s-0.435-2.612-1.304-2.703c-0.872-0.092-2.188,0.932-4.262,1.124
	c-2.076,0.182-5.134,0.182-6.115,0c-0.981-0.192-1.75,0-4.585,0.84c-2.834,0.83-3.493,0.547-3.493,0.547
	c-2.398-0.932-8.947-2.046-9.717-2.136c-0.759-0.091-1.306-1.114-1.417-3.078c-0.111-1.953-0.111-6.337-0.111-6.337
	s6.114-1.113,8.3-2.419c2.187-1.307,1.741-4.008,2.299-5.121c0.536-1.113,5.557-5.314,6.761-5.781
	c1.195-0.465,1.964-1.396,0.648-2.328c-1.306-0.931-2.064-1.213-2.834,0c-0.76,1.217-2.835,4.566-4.688,5.781
	c-1.862,1.215-2.844,2.511-2.844,3.532c0,1.032-0.11,1.215-1.418,1.68c-1.314,0.477-6.993,2.237-6.993,2.237
	c-1.195-2.509-5.021-4.19-5.021-4.19s1.417-0.192,4.149-0.284c2.733-0.091,2.298-2.227,0.658-5.211
	c-1.64-2.987-6.772-5.69-6.772-5.69s2.511-4.655,5.68-7.166c3.168-2.521,9.17-9.13,11.245-12.298
	c2.074-3.169,3.382-7.825,3.168-10.721c-0.223-2.884-3.391-3.158-3.279-1.113c0.111,2.046-1.527,7.643-3.058,11.55
	c-1.527,3.917-3.927,6.063-8.411,10.618c-4.474,4.576-7.521,8.483-7.521,8.483c-0.305-0.174-1.873-0.183-2.146-0.183l0,0
	c0,0-0.01,0-0.02,0c-0.021,0-0.03,0-0.03,0l0,0c-0.273,0-1.833,0.009-2.136,0.183c0,0-3.058-3.907-7.531-8.483
	c-4.475-4.556-6.873-6.701-8.412-10.618c-1.518-3.907-3.158-9.504-3.047-11.55c0.111-2.045-3.057-1.771-3.279,1.113
	c-0.213,2.896,1.084,7.552,3.168,10.721c2.075,3.168,8.078,9.776,11.236,12.298c3.178,2.511,5.688,7.166,5.688,7.166
	s-5.132,2.703-6.771,5.69c-1.64,2.984-2.075,5.12,0.657,5.211c2.734,0.092,4.141,0.284,4.141,0.284s-3.816,1.682-5.021,4.19
	c0,0-5.679-1.761-6.985-2.237c-1.305-0.465-1.416-0.647-1.416-1.68c0-1.021-0.982-2.317-2.846-3.532
	c-1.852-1.215-3.926-4.564-4.695-5.781c-0.76-1.213-1.529-0.931-2.835,0c-1.306,0.933-0.546,1.863,0.658,2.328
	c1.194,0.467,6.216,4.668,6.761,5.781c0.547,1.113,0.111,3.814,2.289,5.121c2.195,1.306,8.311,2.419,8.311,2.419
	s0,4.384-0.111,6.337c-0.111,1.964-0.658,2.987-1.418,3.078c-0.77,0.09-7.318,1.204-9.727,2.136c0,0-0.648,0.283-3.492-0.547
	c-2.824-0.84-3.604-1.032-4.576-0.84c-0.992,0.182-4.049,0.182-6.113,0c-2.076-0.192-3.391-1.216-4.262-1.124
	c-0.881,0.091-1.316,1.215-1.316,2.703s1.529,1.122,2.956,0.556c1.407-0.556,6.225-0.84,8.401-0.748
	c2.187,0.102,4.586,1.681,8.088,2.146c3.482,0.466,4.798,0,6.438-0.364c1.64-0.376,3.381-0.658,3.381-0.376
	c0,0.275-3.816,9.03-5.567,12.108c-1.741,3.076-3.937,5.587-6.114,7.084c-2.186,1.488-9.605,6.61-10.477,6.61
	c-0.881,0-2.52-0.365-2.631,0.566c-0.111,0.933,1.75,2.875,2.52,2.875c0.76,0,1.094-0.738,1.529-1.396
	c0.435-0.648,7.744-5.964,10.152-7.633c2.398-1.681,4.029-2.886,4.029-2.521c0,0.373-0.537,2.338-0.75,2.792
	c-0.223,0.478-8.3,23.576-8.958,30.003c-0.657,6.428-1.964,11.46,0.76,11.551C73.385,162.807,77.211,162.057,78.08,155.538z"/>
</svg>
