<?xml version="1.0" encoding="utf-8"?>
<!-- Generator: Adobe Illustrator 16.0.0, SVG Export Plug-In . SVG Version: 6.00 Build 0)  -->
<!DOCTYPE svg PUBLIC "-//W3C//DTD SVG 1.1//EN" "http://www.w3.org/Graphics/SVG/1.1/DTD/svg11.dtd">
<svg version="1.1" id="Layer_1" xmlns="http://www.w3.org/2000/svg" xmlns:xlink="http://www.w3.org/1999/xlink" x="0px" y="0px"
	 width="200px" height="200px" viewBox="0 0 200 200" enable-background="new 0 0 200 200" xml:space="preserve">
<path fill="#23356E" d="M99.993,119.315c-0.264-0.193-2.926-2.289-4.505-5.274c-1.671-3.128-0.86-8.503-0.86-8.503l-0.385,0.537
	c-0.85,1.204-2.359,14.545-2.936,21.671c-0.587,7.126-0.961,15.123-1.194,17.4c-0.233,2.278-1.721,12.612-2.044,15.74
	c-0.314,3.118-1.246,2.308-1.316,1.589c-0.071-0.729,1.053-4.636,1.255-6.631c0.202-1.982,1.427-22.542,1.569-23.958
	c0.141-1.428,1.275-16.813,1.73-22.665c0.445-5.84,4.535-11.741,4.535-11.741s-0.79-0.709-2.906,0.527
	c-2.125,1.244-10.03,6.193-11.569,7.236c-1.538,1.054-9.059,6.195-10.021,7.056c-0.962,0.851-4.92,3.897-5.881,4.758
	c-0.962,0.859-5.395,2.763-6.266,2.854c-0.861,0.102-0.871-0.657,0.486-0.951c1.346-0.273,4.433-2.095,5.201-2.663
	c0.77-0.575,8.099-7.236,10.021-8.572c1.934-1.336,6.944-5.052,8.675-6.195c1.731-1.134,5.305-4.474,7.228-5.132
	c1.934-0.678,4.241-1.529,4.241-2.096c0-0.576,0.485-0.871-1.821-2.773c-2.318-1.903-4.535-3.998-5.982-5.9
	c-1.447-1.903-2.703-3.523-5.305-8.473c-2.602-4.96-4.434-9.05-4.625-11.529c-0.193-2.47-0.963-5.052-1.832-6.469
	c-0.871-1.438-1.641-3.046-0.963-3.046c0.68,0,3.088,5.04,3.371,6.659c0.293,1.62,0.486,3.715,3.087,8.857
	c2.602,5.143,5.112,10.093,6.165,11.145c1.063,1.054,6.853,6.853,7.227,6.853c0.396,0-0.576-2.379-1.143-3.613
	c-0.588-1.235,0.859-4.858,0.859-6.568c0-1.722-0.668-7.248-3.664-17.907c-2.985-10.669-5.486-17.521-6.073-19.435
	c-0.577-1.902-2.217-5.143-1.731-5.233c0.486-0.102,1.063,1.902,1.549,2.956c0.477,1.043,5.578,13.715,6.55,16.569
	c0.962,2.855,1.448,4.859,1.448,5.709c0,0.861,2.398,7.046,2.398,8.665c0,1.62-0.375,4.101,1.355,5.051
	c1.732,0.952,2.217,0.952,1.063,7.521c0,0-0.587,1.722-0.102,2.765c0.486,1.042,0.679-0.568,0.587-1.519
	c-0.101-0.962,0.305-1.894,1.57-1.742c1.254,0.173,0.516,0.871,0.961,0.933c0.436-0.062-0.293-0.76,0.961-0.933
	c1.256-0.151,1.661,0.78,1.569,1.742c-0.101,0.95,0.092,2.561,0.577,1.519c0.485-1.043-0.102-2.765-0.102-2.765
	c-1.153-6.568-0.668-6.568,1.063-7.521c1.742-0.95,1.347-3.431,1.347-5.051c0-1.619,2.408-7.804,2.408-8.665
	c0-0.85,0.487-2.854,1.448-5.709c0.962-2.854,6.074-15.526,6.56-16.569c0.477-1.054,1.052-3.058,1.539-2.956
	c0.485,0.091-1.155,3.331-1.731,5.233c-0.577,1.913-3.088,8.766-6.073,19.435c-2.986,10.659-3.665,16.186-3.665,17.907
	c0,1.71,1.448,5.333,0.871,6.568c-0.587,1.234-1.548,3.613-1.153,3.613c0.375,0,6.165-5.799,7.217-6.853
	c1.063-1.052,3.563-6.002,6.175-11.145c2.601-5.143,2.794-7.237,3.087-8.857c0.283-1.619,2.692-6.659,3.36-6.659
	c0.688,0-0.081,1.608-0.961,3.046c-0.86,1.417-1.63,3.999-1.823,6.469c-0.191,2.479-2.023,6.569-4.626,11.529
	c-2.602,4.949-3.855,6.569-5.303,8.473c-1.448,1.902-3.664,3.997-5.973,5.9c-2.317,1.902-1.832,2.197-1.832,2.773
	c0,0.566,2.309,1.418,4.241,2.096c1.923,0.658,5.486,3.998,7.217,5.132c1.751,1.144,6.763,4.859,8.686,6.195
	s9.251,7.997,10.021,8.572c0.779,0.568,3.857,2.39,5.215,2.663c1.344,0.294,1.344,1.053,0.475,0.951
	c-0.872-0.091-5.304-1.994-6.267-2.854c-0.962-0.86-4.908-3.907-5.881-4.758c-0.961-0.86-8.482-6.002-10.021-7.056
	c-1.549-1.043-9.444-5.992-11.569-7.236c-2.116-1.236-2.905-0.527-2.905-0.527s4.089,5.901,4.544,11.741
	c0.445,5.852,1.58,21.237,1.73,22.665c0.144,1.416,1.358,21.976,1.56,23.958c0.202,1.995,1.326,5.902,1.256,6.631
	c-0.062,0.719-1.003,1.529-1.327-1.589c-0.313-3.128-1.801-13.462-2.034-15.74c-0.232-2.277-0.607-10.274-1.193-17.4
	c-0.578-7.126-2.086-20.467-2.937-21.671l-0.395-0.537c0,0,0.819,5.375-0.85,8.503c-1.58,2.985-4.242,5.081-4.495,5.274l-0.01,0.009
	L99.993,119.315z"/>
</svg>
