<?xml version="1.0" encoding="utf-8"?>
<!-- Generator: Adobe Illustrator 16.0.0, SVG Export Plug-In . SVG Version: 6.00 Build 0)  -->
<!DOCTYPE svg PUBLIC "-//W3C//DTD SVG 1.1//EN" "http://www.w3.org/Graphics/SVG/1.1/DTD/svg11.dtd">
<svg version="1.1" id="Layer_1" xmlns="http://www.w3.org/2000/svg" xmlns:xlink="http://www.w3.org/1999/xlink" x="0px" y="0px"
	 width="200px" height="200px" viewBox="0 0 200 200" enable-background="new 0 0 200 200" xml:space="preserve">
<path fill-rule="evenodd" clip-rule="evenodd" fill="#23356E" d="M69.923,157.885c-1.072,0-2.146,0-3.229,0
	c-5.486-4.223,0.142-6.742,2.389-9.102c2.713-2.844,7.713-4.877,8.139-8.482c1.438-11.701,9.454-22.471,6.032-35.965
	c-0.232,8.23-4.009,13.746-10.313,17.908c-1.822,1.203-3.614,4.828-6.389,2.156c-2.206-2.137,0.77-4.707,2.592-5.922
	c7.35-4.91,9.039-11.904,10.386-19.193c0.911-4.898,2.925-9.514,5.162-14.07c0.729-1.508,4.546-2.602,1.873-4.473
	c-2.824-1.996-4.241,1.113-5.437,2.611c-8.289,10.414-17.156,20.6-20.133,33.453c-0.557,2.4-1.316,4.555-3.988,5.781
	c0-3.291,0-6.59,0-9.881c5.111-11.184,11.357-21.803,19.85-31.357c1.631-1.842,2.996-3.797,1.256-6.428
	c-7.065-10.629-4.677-21.723-1.721-32.807c1.609,0,3.219,0,4.838,0c2.268,7.357-2.227,14.373-1.428,21.641
	c0.273,2.492-0.334,5.76,3.442,6.418c3.645,0.639,3.27-3.158,5.071-4.545c3.969-3.057,3.674-9.453,10.881-10.012
	c8.634-0.656,8.118,6.865,12.32,10.143c1.811,1.398,1.508,5.193,5.101,4.525c3.745-0.697,3.037-3.988,3.29-6.467
	c0.718-7.299-3.32-14.346-1.519-21.703c1.599,0,3.219,0,4.838,0c3.179,9.85,5.071,19.91,0.092,29.527
	c-2.702,5.213-1.448,8.734,2.095,12.795c7.41,8.461,13.189,17.713,16.561,28.018c0.931,2.814,2.013,5.637-0.699,9.25
	c-0.851-1.184-1.528-1.719-1.648-2.326c-2.469-12.947-10.639-23.475-18.979-33.879c-1.792-2.227-3.382-6.996-7.298-4.879
	c-3.675,1.984,2.692,3.674,2.479,6.193c-0.04,0.426,0.365,0.871,0.547,1.316c4.97,11.398,4.718,24.77,16.692,33.535
	c0.941,0.699,1.59,2.096,0.161,3.078c-1.68,1.152-2.864-0.031-4.17-0.871c-7.663-4.92-12.359-11.326-12.461-20.012
	c-4.049,11.053,3.28,20.396,4.586,30.549c0.698,5.465,3.36,9.605,8.118,13.24c3.411,2.602,8.139,5.02,6.854,10.234
	c-1.621,0-3.23,0-4.85,0c-5.345-7.531-15.568-12.572-14.829-23.221c-1.63,16.518-5.314,21.904-15.549,22.197
	c-11.578,0.334-15.142-3.887-17.602-22.33c-1.356,7.977-3.887,13.746-9.939,17.906C71.452,153.764,70.358,155.717,69.923,157.885z"
	/>
</svg>
