<?xml version="1.0" encoding="utf-8"?>
<!-- Generator: Adobe Illustrator 16.0.0, SVG Export Plug-In . SVG Version: 6.00 Build 0)  -->
<!DOCTYPE svg PUBLIC "-//W3C//DTD SVG 1.1//EN" "http://www.w3.org/Graphics/SVG/1.1/DTD/svg11.dtd">
<svg version="1.1" id="Layer_1" xmlns="http://www.w3.org/2000/svg" xmlns:xlink="http://www.w3.org/1999/xlink" x="0px" y="0px"
	 width="200px" height="200px" viewBox="0 0 200 200" enable-background="new 0 0 200 200" xml:space="preserve">
<g>
	<path fill-rule="evenodd" clip-rule="evenodd" fill="#23356E" d="M54.615,106.625c-1.438-0.152-2.794-0.143-4.15-0.041
		c-1.883,0.141-3.775,0.546-5.668,0.637c-1.347,0.072-2.683,0.123-3.969,0.608c-1.943,0.729-3.573,1.953-4.515,4.221
		c-0.021,0.061-0.04,0.121-0.07,0.143c-0.345,0.263-0.456,1.113-1.013,0.778c-0.445-0.263-0.03-0.81,0.03-1.204
		c0.253-1.701,0.77-3.28,1.934-4.403c0.324-0.314,0.395-0.819,0.628-1.194c1.154-1.923,2.824-2.835,4.615-3.481
		c1.326-0.487,2.693-0.659,4.08-0.78c1.447-0.131,2.914-0.203,4.352-0.485c1.124-0.233,2.299-0.386,3.352-1.022
		c0.212-0.142,0.607-0.162,0.374-0.688c-0.03-0.062,0.051-0.293,0.132-0.354c0.881-0.607,0.162-0.729-0.192-0.962
		c-0.911-0.577-1.782-1.184-2.258-2.368c-0.293-0.709-0.506-0.688-0.759-0.011c-0.253,0.679-0.699,0.952-1.245,1.054
		c-0.294,0.051-0.607,0.051-0.901,0.04c-1.082-0.051-1.984-0.04-2.783,1.285c-0.83,1.397-2.358,1.792-3.775,2.024
		c-0.476,0.07-0.647-0.263-0.436-0.86c0.658-1.72,1.741-2.864,3.26-3.351c0.496-0.161,0.871-0.373,1.154-0.941
		c0.344-0.638,0.891-1.021,1.537-1.204c1.711-0.485,3.422-0.345,5.072,0.202c0.951,0.324,1.913,0.86,2.632,1.782
		c0.294,0.374,0.628,0.354,0.962,0.191c1.285-0.637,2.602-1.193,3.826-1.974c1.094-0.688,1.295-1.761,0.191-2.723
		c-0.88-0.778-1.619-1.73-2.297-2.824c-0.506-0.82-1.428-1.802-2.561-1.66c-0.901,0.102-1.722,0.07-2.329-0.86
		c-0.111-0.172-0.263-0.263-0.435-0.223c-0.436,0.122-0.811-0.132-1.104-0.384c-0.577-0.507-1.164-0.648-1.832-0.365
		c-0.152,0.051-0.345,0.07-0.477-0.01c-0.799-0.506-1.7-0.607-2.52-0.992c-0.416-0.191-0.77-0.314-1.186-0.191
		c-0.678,0.191-1.285,0.029-1.842-0.467c-0.141-0.131-0.283-0.324-0.475-0.091c-0.79,0.922-1.539,0.445-2.268-0.102
		c-0.243-0.172-0.445-0.384-0.76-0.202c-0.577,0.314-1.134,0.223-1.67-0.142c-0.283-0.203-0.557-0.304-0.891-0.021
		c-0.486,0.396-0.992,0.142-1.438-0.183c-0.354-0.263-0.648-0.272-1.033-0.06c-0.668,0.384-1.387,0.455-2.055-0.041
		c-0.385-0.283-0.698-0.172-1.053,0.041c-0.83,0.496-2.115-0.132-2.449-1.164c-0.142-0.437,0.07-0.709,0.304-0.952
		c0.829-0.86,1.771-0.81,2.673-0.313c0.566,0.313,1.103,0.304,1.619,0.081c0.597-0.264,1.072-0.143,1.549,0.303
		c0.293,0.265,0.495,0.294,0.748-0.121c0.345-0.606,0.811-0.556,1.276-0.172c0.182,0.163,0.354,0.364,0.617,0.172
		c0.729-0.577,1.438-0.253,2.096,0.183c0.323,0.232,0.607,0.305,0.972,0.203c0.799-0.244,1.6-0.386,2.277,0.435
		c0.172,0.202,0.415,0.233,0.648,0.04c0.09-0.07,0.201-0.131,0.313-0.161c0.668-0.192,1.256,0.657,1.924,0.283
		c0.748-0.436,1.336,0.122,1.963,0.374c0.305,0.132,0.527,0.183,0.82-0.061c0.445-0.363,0.962-0.354,1.356,0.082
		c0.345,0.384,0.901,0.485,1.083,1.103c0.041,0.121,0.152,0.192,0.223,0.091c0.405-0.648,0.79-0.294,1.245-0.071
		c0.486,0.243,0.871,0.527,0.841,1.276c1.104-0.668,1.832,0.263,2.621,0.799c0.354,0.233,0.639,0.467,1.084,0.416
		c0.485-0.041,0.85,0.252,0.9,0.911c0.041,0.403,0.182,0.728,0.486,0.849c1.406,0.558,2.52,1.59,3.471,2.937
		c0.305,0.426,0.547,0.426,0.992,0.142c0.922-0.617,1.731-1.397,2.5-2.217c1.326-1.428,2.977-2.237,4.435-3.412
		c2.277-1.811,4.89-2.65,7.389-3.806c1.013-0.465,2.126-0.536,3.179-0.84c1.336-0.375,2.703-0.587,4.059-0.587
		c2.015-0.011,4.039,0.142,5.699,1.853c0.283,0.293,0.699,0.598,1.002,0.263c0.365-0.395,0.486-1.053,0.576-1.639
		c0.021-0.183-0.141-0.273-0.252-0.375c-1.063-0.679-1.863-1.711-2.732-2.683c-0.658-0.759-1.408-1.427-2.116-2.126
		c-1.296-1.306-2.328-2.834-3.36-4.403c-0.679-1.042-1.377-2.065-2.288-2.864c-0.679-0.577-1.194-1.397-1.812-2.074
		c-0.739-0.82-1.52-1.52-2.41-2.105c-0.678-0.437-1.225-1.175-1.801-1.813c-0.658-0.719-1.396-1.347-2.156-1.813
		c-0.911-0.556-1.762-1.204-2.652-1.813c-0.506-0.344-0.85-0.93-1.396-1.224c-0.294-0.152-0.375-0.598-0.395-1.012
		c-0.051-1.782-0.557-3.371-1.569-4.688c-0.081-0.121-0.151-0.304-0.313-0.282c-1.296,0.15-1.569-1.418-2.379-2.097
		c-0.294-0.243-0.071-0.871,0.121-1.244c0.213-0.395,0.557-0.354,0.891-0.264c0.172,0.051,0.345,0.142,0.517,0.213
		c0.536,0.212,0.921,0.121,0.962-0.689c0.01-0.282,0.08-0.576,0.313-0.708c0.283-0.172,0.587-0.516,0.891-0.273
		c0.334,0.243,0.264,0.75,0.111,1.074c-0.638,1.305-0.405,2.357,0.436,3.41c0.364,0.466,0.638,1.124,0.79,1.762
		c0.232,0.922,0.668,1.508,1.396,1.903c0.547,0.293,0.719,0.091,0.8-0.517c0.061-0.476-0.04-0.972,0.161-1.406
		c0.092-0.193,0.203-0.416,0.426-0.346c0.213,0.081,0.121,0.324,0.121,0.518c-0.02,1.082,0.162,2.074,0.658,3.036
		c0.375,0.738,0.992,0.972,1.549,1.316c1.781,1.153,3.371,2.642,4.838,4.291c1.022,1.175,2.309,2.025,3.179,3.361
		c0.972,1.508,2.369,1.649,3.776,2.227c-0.102-0.79-0.071-1.448,0-2.237c0.425,0.668,0.809,1.204,0.941,1.943
		c0.191,1.084,0.708,1.894,1.538,2.46c1.407,0.952,2.743,2.075,3.897,3.411c0.557,0.647,0.891,1.6,1.336,2.419
		c0.445,0.8,1.032,1.428,1.457,2.237c0.111,0.212,0.294,0.405,0.518,0.354c0.494-0.121,1.012,0.122,1.446-0.021
		c1.103-0.373,2.136-0.15,3.199,0.123c0.566,0.15,0.677-0.152,0.454-0.719c-0.231-0.577-0.252-1.175-0.252-1.803
		c-0.011-2.349,0.091-4.677,0.303-7.015c0.021-0.191,0.011-0.425,0.102-0.566c0.628-0.921,0.253-1.73-0.192-2.5
		c-0.566-1.022-0.991-2.137-1.417-3.229c-0.779-2.055-1.66-4.049-2.186-6.235c-0.031-0.091-0.082-0.212-0.082-0.313
		c0-1.649-0.668-3.188-0.557-4.859c0.051-0.677-0.525-1.063-0.748-1.629c-0.07-0.203-0.294-0.355-0.314-0.536
		c-0.102-1.226-0.891-1.671-1.63-2.207c-0.435-0.324-0.851-0.679-1.255-1.063c-0.293-0.284-0.324-0.709-0.152-1.063
		c0.193-0.374,0.496-0.213,0.739-0.04c0.304,0.192,0.597,0.283,0.931,0.303c0.577,0.042,0.941-0.102,0.922-0.941
		c-0.01-0.374,0.102-0.88,0.536-0.789c0.396,0.07,0.264,0.577,0.264,0.91c-0.011,0.567-0.051,1.125-0.091,1.672
		c-0.011,0.242,0.029,0.445,0.172,0.606c0.961,1.042,1.467,2.43,2.014,3.776c0.213,0.505,0.445,0.972,0.851,1.295
		c0.425,0.374,0.739,0.881,0.962,1.438c0.557,1.406,1.113,2.824,1.478,4.332c0.122,0.486,0.374,0.882,0.476,1.377
		c0.092,0.404,0.304,0.232,0.486,0.111c0.263-0.172,0.525-0.395,0.83-0.07c0.273,0.293,0.111,0.617,0.011,0.921
		c-0.426,1.346-0.496,2.591,0.029,4.018c0.405,1.094,0.668,2.35,0.617,3.636c-0.021,0.384-0.04,1.001,0.547,0.414
		c0.244-0.223,0.436-0.092,0.516,0.243c0.092,0.323,0.072,0.647,0.011,0.991c-0.263,1.407-0.719,2.814-0.505,4.271
		c0.161,1.094,0.15,2.146,0,3.21c-0.042,0.364,0.08,0.606,0.395,0.657c0.587,0.081,1.173,0.183,1.751,0.273
		c0.091,0.02,0.223-0.031,0.263,0.03c0.566,0.719,1.093,0.182,1.457-0.242c1.347-1.58,2.945-2.237,4.809-2.015
		c0.628,0.07,0.698-0.567,0.738-1.074c0.091-1.336,0.163-2.723,0.163-4.079c-0.011-1.538,0.415-2.954,0.778-4.402
		c0.071-0.294,0.142-0.578,0.233-0.86c0.061-0.254,0.091-0.598,0.243-0.688c0.84-0.537,1.255-1.752,2.358-1.983
		c1.144-0.234,2.247-0.81,3.249-1.57c0.102-0.07,0.223-0.09,0.334-0.11c0.729-0.102,1.244-0.566,1.59-1.316
		c0.344-0.759,0.657-1.538,0.971-2.317c0.143-0.354,0.354-0.577,0.648-0.426c0.293,0.142,0.111,0.477,0.07,0.75
		c-0.08,0.395-0.354,0.717-0.354,1.213c0.647-0.009,1.021-0.484,1.244-1.052c0.487-1.164,1.509-1.821,1.925-3.047
		c0.04-0.142,0.161-0.293,0.322-0.223c0.152,0.062,0.163,0.263,0.203,0.415c0.143,0.476-0.273,0.738-0.334,1.234
		c1.286-0.789,2.186-1.791,2.115-3.643c-0.021-0.467,0.102-0.941,0.163-1.408c0.02-0.182,0.07-0.334,0.231-0.385
		c0.193-0.05,0.293,0.102,0.375,0.284c0.162,0.324,0.264,0.688,0.162,1.042c-0.092,0.304-0.111,0.598-0.03,0.901
		c0.051,0.162-0.163,0.425,0.11,0.485c0.193,0.03,0.445,0.041,0.558-0.212c0.445-0.941,0.84-1.872,0.851-3.036
		c0.01-0.812,0.061-1.651,0.243-2.47c0.324-1.469,0.525-2.987,0.728-4.495c0.051-0.436-0.172-0.871-0.333-1.266
		c-0.243-0.566,0.02-0.92,0.375-1.193c0.414-0.305,0.576,0.191,0.77,0.445c0.13,0.182,0.191,0.414,0.344,0.617
		c0.263,0.364,0.466,0.506,0.709-0.021c0.191-0.414,0.424-0.373,0.626,0c0.203,0.344,0.435,0.395,0.721,0.152
		c0.109-0.091,0.322-0.212,0.373-0.08c0.182,0.404,0.253,0.85,0.789,0.869c0.163,0-0.011,0.395-0.151,0.487
		c-0.323,0.223-0.659,0.414-1.011,0.556c-0.721,0.273-0.974,0.699-0.952,1.65c0.011,0.455-0.325,0.86-0.285,1.275
		c0.144,1.355-0.396,2.602-0.446,3.927c-0.029,0.882-0.453,1.731-0.677,2.602c-0.283,1.164-0.961,2.086-1.336,3.199
		c-0.141,0.395-0.405,0.698-0.679,0.931c-1.539,1.285-3.006,2.672-4.696,3.706c-1.153,0.719-2.298,1.486-3.38,2.419
		c-1.003,0.84-2.167,1.497-3.433,1.741c-0.759,0.121-1.204,0.9-1.842,1.264c-0.162,0.093-0.092,0.366-0.062,0.558
		c0.062,0.477,0.071,0.951,0.173,1.407c0.374,1.538,0.05,3.098,0.01,4.646c-0.01,0.354-0.213,0.588-0.465,0.911
		c0.82,0.071,1.266,0.769,1.892,1.063c0.305,0.131,0.456,0.101,0.629-0.224c1.122-1.993,2.692-2.024,4.211-1.063
		c0.547,0.334,0.91,0.495,1.588-0.162c1.468-1.438,3.229-1.821,5.082-0.88c0.668,0.334,1.266-0.062,1.872-0.244
		c0.507-0.131,0.932-0.475,1.459-0.525c0.921-0.102,1.731,0.051,2.358,1.013c0.271,0.414,1.314,0.353,1.709-0.082
		c0.952-1.022,1.923-1.255,3.189-0.738c1.55,0.638,3.18,0.931,4.838,0.82c0.051-0.011,0.102-0.031,0.131-0.011
		c0.984,0.688,2.168,0.264,3.16,0.901c0.424,0.263,0.779,0.627,0.971,1.134c0.254,0.628,0.587,0.647,1.014,0.333
		c0.84-0.627,1.681-0.525,2.55-0.051c0.688,0.365,1.296,0.8,2.187,0.456c1.094-0.435,2.188-0.102,2.977,1.153
		c0.304,0.496,0.869,0.699,1.194,1.215c0.04,0.072,0.182,0.081,0.262,0.062c1.194-0.335,2.36-0.657,3.149-2.015
		c0.323-0.567,0.79-1.123,1.507-1.185c0.405-0.04,0.496,0.132,0.334,0.477c-0.436,0.941-0.485,2.074-1.174,2.895
		c-0.547,0.668-0.435,1.356,0.184,1.883c0.881,0.759,1.417,1.832,1.952,2.915c0.225,0.456,0.334,0.981,0.225,1.539
		c-0.083,0.364-0.072,0.759,0.051,1.063c0.322,0.82,0.171,1.579-0.094,2.339c-0.109,0.344-0.142,0.697-0.142,1.063
		c0,0.688-0.151,1.306-0.485,1.882c-0.698,1.186-0.658,1.499,0.152,2.632c0.384,0.547,0.739,1.125,1.123,1.681
		c0.133,0.183,0.213,0.365,0.122,0.608c-0.101,0.272-0.304,0.172-0.477,0.161c-0.425-0.01-0.841-0.081-1.214-0.345
		c-0.931-0.679-2.024-0.941-3.006-1.519c-0.445-0.263-0.821-0.131-1.114,0.426c-1.214,2.348-2.904,3.745-5.283,3.613
		c-0.405-0.02-0.576,0.265-0.729,0.628c-0.658,1.528-1.781,2.115-3.128,2.236c-0.384,0.051-0.739-0.029-1.083-0.242
		c-0.568-0.354-1.054-0.395-1.68,0.041c-0.436,0.313-0.833,0.598-1.134,1.063c-0.648,0.951-2.915,1.407-4.109,0.587
		c-0.337-0.233-0.598-0.223-0.902,0.021c-0.738,0.607-1.567,0.961-2.45,1.053c-0.616,0.08-1.275,0.061-1.821-0.507
		c-0.565-0.586-1.123-1.133-1.984-0.536c-0.819,0.557-1.801,0.446-2.713,0.627c-0.811,0.163-1.568-0.344-2.054-1.244
		c-0.456-0.82-0.689-0.811-1.185-0.061c-1.286,1.933-3.26,1.893-4.627,0.132c-0.192-0.243-0.344-0.536-0.536-0.77
		c-0.304-0.405-0.628-0.395-0.95-0.011c-0.71,0.78-1.58,0.932-2.501,0.921c-0.193,0-0.425-0.172-0.567,0.091
		c-0.111,0.233,0.071,0.405,0.143,0.617c0.354,1.094,1.164,1.854,1.518,2.987c0.517,1.681,1.003,3.36,1.093,5.152
		c0.042,0.729,0.426,1.295,0.426,2.024c0,0.161,0.233,0.719,0.759,0.324c0.507-0.405,1.063,0.172,1.59,0.364
		c0.709,0.242,1.254,0.891,1.953,1.215c0.476,0.231,0.972,0.101,1.417,0.374c1.023,0.638,2.056,1.255,2.966,2.146
		c0.293,0.284,0.669,0.527,1.042,0.648c0.981,0.324,1.864,1.022,2.864,1.255c0.265,0.062,0.467,0.233,0.681,0.414
		c1.456,1.246,2.65,2.836,3.773,4.496c0.861,1.254,1.601,2.651,2.4,3.978c0.467,0.759,0.861,1.62,1.883,1.234
		c0.373-0.142,0.789,0.091,0.858,0.608c0.072,0.454-0.2,0.84-0.555,0.941c-0.829,0.231-1.317,0.859-1.6,1.801
		c-0.062,0.162-0.182,0.324-0.294,0.455c-0.122,0.172-0.253,0.365-0.467,0.273c-0.231-0.091-0.253-0.354-0.282-0.617
		c-0.051-0.557,0.091-1.094-0.011-1.67c-0.253-1.406-1.134-2.308-1.923-3.179c-0.971-1.072-1.923-2.146-2.752-3.391
		c-0.385-0.587-0.992-0.881-1.521-1.286c-0.293-0.231-0.587-0.445-0.891-0.657c-0.192-0.151-0.384-0.496-0.595-0.324
		c-0.225,0.203,0.008,0.517,0.099,0.759c0.083,0.243,0.194,0.466,0.163,0.729c-0.03,0.263,0.021,0.598-0.254,0.719
		c-0.262,0.122-0.445-0.143-0.576-0.365c-0.191-0.303-0.405-0.638-0.507-0.992c-0.395-1.427-1.498-1.669-2.469-2.287
		c-0.081,0.669,0.152,1.145,0.325,1.61c0.12,0.363,0.12,0.738-0.164,0.88c-0.333,0.183-0.414-0.243-0.496-0.517
		c-0.556-1.812-1.73-2.854-3.208-3.785c0.243,0.88,0.456,1.589,0.638,2.308c0.062,0.263,0.142,0.648-0.121,0.75
		c-0.334,0.13-0.426-0.284-0.486-0.547c-0.223-1.022-0.8-1.832-1.174-2.765c-0.273-0.708-0.973-0.899-1.509-1.266
		c-0.708-0.485-1.427-0.931-2.024-1.599c-0.253-0.293-0.597-0.597-0.637-0.972c-0.093-0.992-0.527-0.799-1.063-0.627
		c-0.769,0.252-1.408-0.233-1.943-0.811c-1.032-1.063-1.681-2.419-2.236-3.947c-0.801-2.207-1.459-4.465-2.319-6.621
		c-0.263-0.688-0.505-1.365-0.576-2.317c-0.749,0.941-1.66,0.962-2.511,1.164c-1.094,0.254-2.065-0.384-3.047-0.859
		c-0.243-0.112-0.435-0.305-0.688-0.042c-0.445,0.477-0.972,0.518-1.508,0.365c-0.566-0.162-0.638,0.131-0.537,0.688
		c0.253,1.528,0.607,3.036,1.084,4.494c0.231,0.698,0.445,1.406,0.627,2.125c0.172,0.729,0.354,1.418,0.972,1.854
		c0.466,0.324,0.496,1.053,0.668,1.609c0.344,1.072,0.699,2.104,1.376,2.966c0.568,0.719,0.456,1.103-0.303,1.518
		c-0.202,0.121-0.223,0.223-0.172,0.445c0.385,1.772,0.79,3.534,1.316,5.265c0.313,1.032,0.142,2.156,0.263,3.248
		c0.051,0.426,0.091,0.861,0.232,1.286c0.385,1.154,0.456,2.42,0.932,3.543c0.182,0.425,0.395,0.811,0.587,1.225
		c0.081,0.182,0.213,0.396,0.02,0.598c-0.131,0.152-0.293,0.111-0.435-0.011c-0.335-0.273-0.364-0.07-0.507,0.294
		c-0.313,0.87-0.505,1.721-0.282,2.672c0.051,0.192-0.011,0.456-0.092,0.638c-0.769,2.015-0.08,3.675,0.881,5.233
		c0.203,0.334,0.587,0.578,0.263,1.043c-0.324,0.455-0.657,0.11-0.91-0.142c-0.719-0.719-1.458-0.739-2.268-0.273
		c-0.202,0.131-0.436,0.232-0.658,0.253c-0.313,0.061-0.496-0.08-0.395-0.537c0.143-0.606,0.242-1.234,0.769-1.599
		c0.587-0.405,0.567-1.135,0.527-1.792c-0.071-1.579,0.02-3.157,0.009-4.747c0-1.407,0.223-2.854-0.263-4.292
		c-0.465-1.427-0.11-3.047-0.273-4.564c-0.181-1.651-0.313-3.32-1.063-4.798c-0.183-0.366-0.304-0.558-0.598-0.143
		c-0.151,0.193-0.363,0.416-0.606,0.233c-0.233-0.162-0.081-0.457-0.051-0.688c0.061-0.496-0.03-0.992,0.111-1.499
		c0.092-0.324-0.122-0.465-0.345-0.485c-0.587-0.051-0.899-0.485-1.244-1.032c-0.921-1.468-1.529-3.066-1.843-4.879
		c-0.253-1.478-0.708-2.915-1.073-4.372c-0.07-0.324-0.182-0.659-0.161-0.983c0.051-0.992-0.324-1.892-0.415-2.833
		c-0.03-0.366-0.223-0.305-0.405-0.173c-0.324,0.232-0.628,0.486-0.952,0.709c-0.606,0.414-1.214,0.779-1.942,0.789
		c-0.708,0.011-1.145,0.445-1.164,1.336c-0.011,0.466-0.142,0.901-0.305,1.285c-0.556,1.356-0.313,2.915-0.829,4.303
		c-0.618,1.69-1.164,3.441-1.601,5.213c-0.384,1.61-0.971,2.997-2.053,4.049c-0.446,0.405-0.842,0.86-1.227,1.347
		c-0.374,0.466-0.455,0.931-0.172,1.509c0.192,0.363,0.314,0.798,0.445,1.214c0.102,0.273,0.254,0.638-0.04,0.83
		c-0.334,0.202-0.507-0.192-0.647-0.455c-0.143-0.233-0.223-0.425-0.517-0.537c-0.415-0.152-0.557,0.011-0.557,0.386
		c0,1.567-0.972,2.438-1.64,3.552c-0.76,1.245-1.447,2.582-2.449,3.513c-1.347,1.245-2.42,2.835-3.796,4.019
		c-0.628,0.557-1.003,1.255-1.194,2.186c-0.345,1.792-0.547,3.625-1.195,5.325c-0.151,0.385-0.253,0.851-0.03,1.296
		c0.071,0.151,0.111,0.333,0.021,0.476c-0.354,0.567-0.921,0.627-1.438,0.688c-0.354,0.03-0.526-0.354-0.547-0.81
		c-0.02-0.668-0.445-0.395-0.729-0.395c-0.243,0.02-0.567,0.242-0.638-0.193c-0.071-0.445,0.232-0.646,0.546-0.739
		c0.314-0.091,0.658,0.021,1.013-0.231c-0.8-1.063-0.051-2.126,0.041-3.189c0.111-1.104,0.445-2.166,0.647-3.26
		c0.162-0.859,0.557-1.66,1.347-2.004c0.719-0.313,1.336-0.9,1.994-1.367c0.395-0.262,0.688-0.668,0.88-1.153
		c0.811-2.065,2.166-3.673,3.209-5.567c0.811-1.497,1.357-3.098,1.65-4.828c0.121-0.738,0.273-1.468,0.436-2.187
		c0.465-2.075,0.869-4.159,1.254-6.245c0.143-0.77,0.416-1.417,0.689-2.085c0.029-0.091,0.344-0.254-0.133-0.506
		c-0.809-0.445-1.164-0.021-1.619,0.466c-0.426,0.485-1.002,0.606-1.387,1.274c-0.455,0.8-1.295,1.235-2.084,1.579
		c-1.448,0.658-2.875,1.457-4.374,1.924c-1.649,0.517-3.31,1.193-5.062,1.123c-0.607-0.031-1.002,0.537-1.568,0.639
		c-1.285,0.242-2.592,0.049-3.867,0.283c-0.566,0.101-1.153,0.09-1.73,0.132c-0.191,0.02-0.313,0-0.253,0.395
		c0.091,0.547,0.263,0.992,0.536,1.417c0.405,0.638,0.578,1.386,0.416,2.135c-0.183,0.78-0.011,1.429,0.242,2.097
		c0.334,0.86,0.598,1.72,0.395,2.722c-0.121,0.598,0.314,1.135,0.416,1.741c0.172,1.022,0.506,1.974,0.029,2.985
		c-0.141,0.305,0.011,0.668,0.143,0.963c0.414,0.85,0.363,1.711,0.04,2.58c-0.212,0.567-0.405,1.125-0.223,1.823
		c0.132,0.506,0.071,1.094,0.011,1.67c-0.072,0.719-0.456,1.104-0.932,1.438c0.85,0.526,1.184,2.095,0.557,2.804
		c-0.709,0.801-0.789,1.731-0.648,2.754c0.071,0.556,0,1.001-0.334,1.376c-0.131,0.132-0.252,0.282-0.242,0.485
		c0.03,0.992-0.264,1.934-0.264,2.895c-0.01,1.266-0.415,2.238-1.012,3.18c-0.314,0.485-0.456,1.073-0.82,1.539
		c-0.313,0.384-0.587,0.454-0.982,0.223c-0.961-0.567-1.153-1.195-0.525-2.238c0.759-1.274,0.9-2.773,1.063-4.241
		c0.061-0.576,0.121-1.134,0.557-1.467c0.232-0.183,0.152-0.445,0.102-0.688c-0.203-1.144,0.213-1.953,1.002-2.511
		c0.375-0.263,0.253-0.375,0.021-0.638c-0.83-0.932-0.841-1.387-0.071-2.328c0.092-0.102,0.152-0.223,0.232-0.324
		c0.436-0.485,0.912-0.809-0.07-1.376c-0.962-0.558-0.891-2.176,0.03-2.916c0.364-0.282,0.374-0.466,0.183-0.891
		c-0.273-0.668-0.375-1.376,0.102-2.034c0.272-0.374,0.283-0.789-0.102-1.154c-0.365-0.364-0.283-0.922-0.294-1.416
		c-0.021-0.507,0.021-0.963-0.385-1.367c-0.344-0.334-0.101-0.83,0.041-1.234c0.212-0.588,0.536-1.094-0.162-1.641
		c-0.324-0.253-0.142-1.032-0.051-1.498c0.162-0.759-0.021-1.235-0.294-1.903c-0.465-1.113-1.063-2.165-1.396-3.36
		c-0.354-1.296-0.547-1.316-1.681-1.195c-1.528,0.163-3.017,0.496-4.464,1.074c-0.365,0.151-0.617,0.354-0.749,0.779
		c-0.495,1.528-1.255,2.794-2.521,3.533c-0.202,0.132-0.273,0.384-0.354,0.597c-0.365,1.072-1.104,1.337-1.965,1.388
		c-0.161,0-0.323,0-0.485,0.009c-0.819,0.132-1.315-0.476-1.194-1.467c0.03-0.324,0.213-0.395,0.436-0.445
		c0.607-0.152,1.215-0.375,1.822-0.496c0.607-0.112,0.77-0.507,0.647-1.175c-0.132-0.688-0.253-1.367-0.364-2.055
		c-0.102-0.617-0.436-0.435-0.668-0.243c-0.436,0.364-0.881,0.759-1.215,1.246c-0.749,1.071-1.498,2.125-2.611,2.661
		c-0.314,0.132-0.314,0.435-0.213,0.77c0.081,0.324,0.213,0.466,0.496,0.395c0.526-0.132,1.063-0.152,1.255,0.628
		c0.162,0.638-0.232,1.337-0.921,1.64c-1.235,0.537-2.511,0.678-3.816,0.607c-1.215-0.051-2.379-0.162-3.635,0.334
		c-2.895,1.144-5.668,0.354-8.219-1.6c-0.142-0.102-0.304-0.213-0.232-0.445c0.07-0.202,0.253-0.273,0.415-0.242
		c1.407,0.182,2.764-0.143,4.12-0.517c1.488-0.425,2.926-1.042,4.24-1.983c0.689-0.507,1.428-0.871,2.105-1.429
		c0.911-0.759,1.671-1.689,2.562-2.428c0.536-0.446,0.931-1.063,1.427-1.56c0.365-0.374,0.334-0.912,0.507-1.347
		c0.344-0.86,0.951-1.438,1.356-2.216c0.151-0.324,0.253-0.507-0.061-0.831c-0.426-0.425-0.861-0.829-1.347-1.124
		c-0.445-0.263-0.719-0.708-0.647-1.274c0.101-0.801,0.101-1.61,0.131-2.43C54.25,107.322,54.453,107.06,54.615,106.625z
		 M155.888,94.73c0.558,0.202,0.688-0.404,0.812-0.759c0.141-0.395-0.021-0.952-0.376-1.113c-0.396-0.183-0.881-0.011-1.072,0.485
		c-0.222,0.547-0.558,0.688-0.992,0.738c-0.152,0.011-0.374-0.07-0.384,0.214c-0.011,0.242,0.191,0.293,0.354,0.293
		c0.706,0.011,0.891,0.456,0.706,1.204c-0.04,0.163-0.109,0.335,0.094,0.415c0.171,0.062,0.302-0.04,0.402-0.201
		c0.152-0.223,0-0.437-0.008-0.639C155.402,94.974,155.432,94.629,155.888,94.73z M145.948,96.401
		c-1.539-0.365-1.963-0.051-2.074,1.285c-0.04,0.607,0.01,1.094,0.557,1.235c0.598,0.161,0.718-0.415,0.859-0.941
		C145.431,97.464,145.301,96.796,145.948,96.401z M116.847,66.5c0.405-0.273,0.567-0.77,1.063-0.952
		c0.344-0.151,0.739-0.86,0.525-1.568c-0.08-0.264-0.11-0.659-0.425-0.688c-0.294-0.03-0.404,0.303-0.536,0.567
		C117.06,64.657,117.141,65.629,116.847,66.5z M121.108,95.985c0.87-0.029,1.487-0.475,1.438-1.072
		c-0.031-0.415-0.173-0.851-0.607-0.871c-0.324-0.02-1.205,1.275-1.164,1.66C120.795,95.976,120.978,95.965,121.108,95.985z
		 M151.04,95.317c-0.011-0.415-0.254-0.395-0.446-0.404c-0.515-0.03-1.314,0.84-1.354,1.457c-0.011,0.243,0.08,0.536,0.283,0.457
		c0.293-0.133,0.728-0.102,0.858-0.315C150.634,96.157,150.775,95.651,151.04,95.317z M160.646,92.23
		c0.275-0.182,0.688-0.404,1.021-0.739c0.203-0.183,0.163-0.556-0.202-0.547c-0.435,0.021-0.869,0.071-1.286,0.223
		c-0.312,0.122-0.869,0.184-0.808,0.699c0.051,0.415,0.547,0.212,0.858,0.253C160.313,92.129,160.403,92.159,160.646,92.23z"/>
	<path fill-rule="evenodd" clip-rule="evenodd" fill="#23356E" d="M68.007,157.63c-0.658-0.354-0.598-0.891-0.313-1.376
		c0.476-0.82,0.86-1.792,1.812-2.044c0.425-0.112,0.658,0.101,0.8,0.556c0.313,1.022-0.183,2.593-1.043,2.845
		c-0.476,0.151-0.455,0.405-0.496,0.851c-0.051,0.536-0.061,1.032,0.132,1.548c0.183,0.467-0.03,0.861-0.304,1.195
		c-0.264,0.323-0.506,0.03-0.749-0.102c-0.213-0.102-0.425-0.254-0.647-0.305c-0.75-0.263-0.973-0.88-0.547-1.669
		C66.964,158.552,67.298,157.976,68.007,157.63z"/>
	<path fill-rule="evenodd" clip-rule="evenodd" fill="#23356E" d="M155.888,94.73c-0.456-0.102-0.485,0.243-0.464,0.638
		c0.008,0.202,0.16,0.416,0.008,0.639c-0.101,0.161-0.231,0.263-0.402,0.201c-0.203-0.08-0.134-0.252-0.094-0.415
		c0.185-0.748,0-1.193-0.706-1.204c-0.163,0-0.365-0.051-0.354-0.293c0.01-0.284,0.231-0.203,0.384-0.214
		c0.435-0.05,0.771-0.191,0.992-0.738c0.191-0.496,0.677-0.668,1.072-0.485c0.354,0.161,0.517,0.719,0.376,1.113
		C156.576,94.326,156.445,94.933,155.888,94.73z"/>
	<path fill-rule="evenodd" clip-rule="evenodd" fill="#23356E" d="M145.948,96.401c-0.647,0.395-0.518,1.063-0.658,1.579
		c-0.142,0.526-0.262,1.103-0.859,0.941c-0.547-0.142-0.597-0.628-0.557-1.235C143.985,96.351,144.409,96.036,145.948,96.401z"/>
	<path fill-rule="evenodd" clip-rule="evenodd" fill="#23356E" d="M116.847,66.5c0.294-0.871,0.213-1.843,0.628-2.642
		c0.132-0.265,0.242-0.598,0.536-0.567c0.314,0.029,0.345,0.425,0.425,0.688c0.214,0.708-0.182,1.417-0.525,1.568
		C117.414,65.73,117.252,66.227,116.847,66.5z"/>
	<path fill-rule="evenodd" clip-rule="evenodd" fill="#23356E" d="M121.108,95.985c-0.131-0.021-0.313-0.01-0.334-0.283
		c-0.041-0.385,0.84-1.68,1.164-1.66c0.435,0.021,0.576,0.456,0.607,0.871C122.596,95.511,121.979,95.956,121.108,95.985z"/>
	<path fill-rule="evenodd" clip-rule="evenodd" fill="#23356E" d="M151.04,95.317c-0.265,0.334-0.406,0.84-0.659,1.194
		c-0.131,0.214-0.565,0.183-0.858,0.315c-0.203,0.079-0.294-0.214-0.283-0.457c0.04-0.617,0.84-1.487,1.354-1.457
		C150.786,94.923,151.029,94.902,151.04,95.317z"/>
	<path fill-rule="evenodd" clip-rule="evenodd" fill="#23356E" d="M160.646,92.23c-0.242-0.071-0.333-0.102-0.416-0.111
		c-0.312-0.041-0.808,0.162-0.858-0.253c-0.062-0.516,0.496-0.577,0.808-0.699c0.417-0.151,0.852-0.202,1.286-0.223
		c0.365-0.009,0.405,0.364,0.202,0.547C161.334,91.826,160.921,92.049,160.646,92.23z"/>
</g>
</svg>
