<?xml version="1.0" encoding="utf-8"?>
<!-- Generator: Adobe Illustrator 16.0.0, SVG Export Plug-In . SVG Version: 6.00 Build 0)  -->
<!DOCTYPE svg PUBLIC "-//W3C//DTD SVG 1.1//EN" "http://www.w3.org/Graphics/SVG/1.1/DTD/svg11.dtd">
<svg version="1.1" id="Layer_1" xmlns="http://www.w3.org/2000/svg" xmlns:xlink="http://www.w3.org/1999/xlink" x="0px" y="0px"
	 width="200px" height="200px" viewBox="0 0 200 200" enable-background="new 0 0 200 200" xml:space="preserve">
<path fill="#23356E" d="M130.596,131.207c-0.867,0-2.309,0.082-4.039-0.891c-1.727-0.961-1.768-0.404-2.961-4.342
	c-1.186-3.934-3.492-11.803-4.357-13.262c-0.865-1.447-3.752-2.367-3.752-2.367c0.254-0.191-0.141-1.711-1.406-5.092
	s-2.668-3.75-2.668-3.75s0.219-0.41,0.613-1.746s-0.541-3.938-0.541-3.938c5.84-0.369,6.564-1.266,7.064-1.6
	c0.512-0.334,2.996-5.607,3.139-5.9c0.146-0.295,0.648-0.893,0.076-1.039c-0.584-0.146-0.941,0.146-1.119,0.486
	c-0.184,0.33-2.309,4.936-2.961,5.607c-0.646,0.668-2.668,0.594-3.674,0.814c-1.012,0.225-3.295,0.395-3.295,0.395
	c-0.82-2.771-5.674-5-5.674-5c1.488-0.793,0.773-2.08,0.773-2.08s0.521-1.387,1.15-2.08c0.627-0.689,0.719-1.488,0.338-2.332
	c-0.383-0.842,0.527-0.785,0.572-1.879c0.051-1.082-1.154-0.738-1.488,0.344c-0.338,1.1,0.096,1.443,0.385,1.934
	c0.289,0.496-0.334,1.535-0.576,1.535c-0.238,0-1.104,1.486-1.104,1.486l-1.301-0.744c0,0-0.289-3.26,0.096-6.73
	c0.385-3.467,5.482-17.137,5.482-17.137l5.672-14.652c0,0,4.521-10.592,5-12.869c0.477-2.279-0.676-0.791-0.676-0.791
	s-6.92,17.527-7.299,19.107c-0.391,1.592-7.314,19.561-8.23,23.123c-0.91,3.568-1.438,9.555-1.438,9.555
	c-0.693-0.354-2.105-0.211-2.393-0.176c-0.293-0.035-1.711-0.178-2.404,0.176c0,0-0.527-5.986-1.443-9.555
	c-0.91-3.563-7.834-21.531-8.219-23.123c-0.385-1.58-7.303-19.107-7.303-19.107s-1.154-1.488-0.678,0.791
	c0.48,2.277,5,12.869,5,12.869L90.631,61.9c0,0,5.098,13.67,5.482,17.137c0.379,3.471,0.096,6.73,0.096,6.73l-1.295,0.744
	c0,0-0.871-1.486-1.109-1.486c-0.242,0-0.859-1.039-0.576-1.535c0.289-0.49,0.723-0.834,0.389-1.934
	c-0.338-1.082-1.543-1.426-1.492-0.344c0.051,1.094,0.957,1.037,0.576,1.879c-0.385,0.844-0.287,1.643,0.334,2.332
	c0.629,0.693,1.154,2.08,1.154,2.08s-0.719,1.287,0.77,2.08c0,0-4.854,2.229-5.674,5c0,0-2.281-0.17-3.289-0.395
	c-1.012-0.221-3.031-0.146-3.68-0.814c-0.652-0.672-2.779-5.277-2.961-5.607c-0.178-0.34-0.541-0.633-1.119-0.486
	c-0.576,0.146-0.07,0.744,0.076,1.039c0.146,0.293,2.627,5.566,3.139,5.9c0.496,0.334,1.225,1.23,7.064,1.6
	c0,0-0.936,2.602-0.541,3.938s0.613,1.746,0.613,1.746s-1.402,0.369-2.668,3.75s-1.66,4.9-1.406,5.092c0,0-2.885,0.92-3.75,2.367
	c-0.867,1.459-3.174,9.328-4.359,13.262c-1.193,3.938-1.229,3.381-2.961,4.342c-1.725,0.973-3.172,0.891-4.037,0.891
	s-2.344-0.258-2.344,0.416c0,0.662,0.076,1.775,1.479,1.076c1.406-0.711,3.096-0.414,4.221-0.711
	c1.117-0.295,3.025-0.219,5.729-7.543c2.707-7.313,3.32-10.654,3.68-10.982c0.365-0.338,1.482-0.557,1.518-0.039
	c0.037,0.525-1.412,11.25-0.793,15.299c0,0-4.039,1.676-4.547,2.484c-0.5,0.82-1.117,3.27-0.9,4.277
	c0.213,1.002,1.043,5.08,1.297,5.859c0.252,0.787,2.49,13.777,2.529,14.455c0.035,0.664-1.508,9.582-1.508,9.885
	c0,0.299-0.865,0.74,0.051,1.09c0.91,0.344,1.012-0.102,0.91-0.988c-0.09-0.891,1.488-8.123,1.879-9.008
	c0.379-0.891,0.379-1.488,0.045-2.977c-0.334-1.482-1.584-14.055-3.314-18.367c0,0-1.008-2.023,0.146-2.08
	c1.154-0.045,3.361,0.789,4.131,0.992c0,0,0.146,6.113,5.408,18.969c0,0-4.615,4.818-4.037,8.973c0,0,0.293,0.674,0.576-0.961
	c0.289-1.629,1.949-5.197,3.893-6.014c0,0,3.684,11.137,7.789,11.359l2.701,0.201v0.006l0.063-0.006l0.055,0.006v-0.006l2.697-0.201
	c4.111-0.223,7.789-11.359,7.789-11.359c1.949,0.816,3.604,4.385,3.893,6.014c0.289,1.635,0.576,0.961,0.576,0.961
	c0.578-4.154-4.039-8.973-4.039-8.973c5.27-12.855,5.412-18.969,5.412-18.969c0.77-0.203,2.977-1.037,4.129-0.992
	c1.158,0.057,0.146,2.08,0.146,2.08c-1.725,4.313-2.98,16.885-3.314,18.367c-0.334,1.488-0.334,2.086,0.045,2.977
	c0.391,0.885,1.971,8.117,1.877,9.008c-0.096,0.887,0,1.332,0.912,0.988c0.916-0.35,0.051-0.791,0.051-1.09
	c0-0.303-1.537-9.221-1.508-9.885c0.041-0.678,2.273-13.668,2.529-14.455c0.254-0.779,1.08-4.857,1.297-5.859
	c0.223-1.008-0.395-3.457-0.896-4.277c-0.51-0.809-4.549-2.484-4.549-2.484c0.617-4.049-0.832-14.773-0.795-15.299
	c0.039-0.518,1.158-0.299,1.518,0.039c0.365,0.328,0.971,3.67,3.68,10.982c2.703,7.324,4.615,7.248,5.729,7.543
	c1.125,0.297,2.814,0,4.223,0.711c1.406,0.699,1.477-0.414,1.477-1.076C132.938,130.949,131.461,131.207,130.596,131.207z"/>
</svg>
