<?xml version="1.0" encoding="utf-8"?>
<!-- Generator: Adobe Illustrator 16.0.0, SVG Export Plug-In . SVG Version: 6.00 Build 0)  -->
<!DOCTYPE svg PUBLIC "-//W3C//DTD SVG 1.1//EN" "http://www.w3.org/Graphics/SVG/1.1/DTD/svg11.dtd">
<svg version="1.1" id="Layer_1" xmlns="http://www.w3.org/2000/svg" xmlns:xlink="http://www.w3.org/1999/xlink" x="0px" y="0px"
	 width="200px" height="200px" viewBox="0 0 200 200" enable-background="new 0 0 200 200" xml:space="preserve">
<path fill="#23356E" d="M153.092,122.392c-1.094-0.586-1.781-1.533-1.781-1.533c-0.851-1.078-1.126-1.599-1.499-2.465
	c-0.072-0.191-0.152-0.389-0.242-0.613c-1.539-3.811-4.708-10.703-5.689-10.703c-1.307,0-13.482-1.092-13.482-1.092
	s-2.167-10.73-4.495-16.42c-2.318-5.684-4.636-6.852-7.248-7.439c-2.602-0.582-8.988,0-8.988,0c2.318-0.43,6.681-4.373,8.412-5.834
	c1.74-1.459-0.284-2.041,3.623-4.375c3.918-2.333,7.248-7.146,8.118-8.901c0.871-1.747,2.612-4.38,3.341-5.107
	c0.719-0.728,2.743-0.865,4.778-2.622c2.024-1.75,1.163-3.359,0.142-2.92s-7.248,3.36-9.425,6.129
	c-2.165,2.773-2.459,4.813-3.188,6.276c-0.719,1.458-3.613,4.079-5.212,4.079c-1.601,0-2.896,0.88-3.908,0.88
	c-1.021,0-4.929-3.354-6.093-4.524s-0.437-4.524-2.319-5.977c-1.892-1.468-1.446-1.175-1.012-2.489
	c0.436-1.308,3.331-1.894,5.355-3.787c2.023-1.897,3.047-4.964,2.469-5.107c-0.577-0.15-3.329,2.334-3.198,3.646
	c0.151,1.314-3.037,2.338-4.342,2.338c-1.306,0-2.318,1.164-3.037,1.457c-0.881,0.35-0.881,0.294-4.171,0.395
	c-3.29-0.101-3.29-0.045-4.17-0.395c-0.719-0.293-1.741-1.457-3.037-1.457c-1.306,0-4.494-1.023-4.353-2.338
	c0.142-1.312-2.601-3.796-3.188-3.646c-0.586,0.144,0.436,3.21,2.47,5.107c2.025,1.894,4.92,2.479,5.355,3.787
	c0.435,1.314,0.87,1.021-1.012,2.489c-1.894,1.452-1.154,4.807-2.318,5.977s-5.071,4.524-6.094,4.524
	c-1.012,0-2.318-0.88-3.907-0.88c-1.6,0-4.495-2.621-5.213-4.079c-0.738-1.463-1.022-3.503-3.188-6.276
	c-2.187-2.769-8.412-5.689-9.434-6.129c-1.013-0.439-1.883,1.17,0.151,2.92c2.035,1.757,4.059,1.895,4.778,2.622
	c0.729,0.728,2.47,3.36,3.33,5.107c0.881,1.756,4.211,6.568,8.128,8.901c3.907,2.334,1.883,2.916,3.624,4.375
	c1.731,1.461,6.084,5.404,8.401,5.834c0,0-6.376-0.582-8.988,0c-2.602,0.588-4.919,1.756-7.237,7.439
	c-2.328,5.689-4.504,16.42-4.504,16.42s-12.177,1.092-13.473,1.092c-0.981,0-4.16,6.893-5.688,10.703
	c-0.091,0.225-0.172,0.422-0.243,0.613c-0.375,0.866-0.648,1.387-1.499,2.465c0,0-0.688,0.947-1.781,1.533
	c-1.083,0.587-6.661,2.987-6.731,3.574c-0.071,0.586,1.488,1.094,4.089-0.293c2.602-1.387,5.952-3.326,7.065-5.826l0.355-0.663
	c1.528-2.845,4.21-9.479,4.788-9.708c0.587-0.211,12.188-0.57,12.623-0.211c0,0,0.86,9.186,2.247,12.834
	c0,0-10.152,10.063-10.73,13.422c-0.586,3.355-3.481,11.084-8.27,13.711c-4.777,2.633-3.998,4.914,3.017,0.192
	c5.831-3.946,6.63-14.343,8.726-16.823c3.198-3.766,8.411-6.999,8.411-6.999s2.753,4.524,7.541,9.333
	c4.768,4.809,9.394,10.465,19.921,10.492l0,0c0.009,0,0.02,0,0.04,0s0.02,0,0.04,0l0,0c10.518-0.027,15.153-5.684,19.921-10.492
	c4.788-4.809,7.542-9.333,7.542-9.333s5.213,3.233,8.401,6.999c2.104,2.48,2.904,12.877,8.734,16.823
	c7.017,4.722,7.796,2.44,3.009-0.192c-4.779-2.627-7.684-10.355-8.26-13.711c-0.579-3.359-10.731-13.422-10.731-13.422
	c1.387-3.648,2.247-12.834,2.247-12.834c0.437-0.359,12.036,0,12.623,0.211c0.565,0.229,3.249,6.863,4.776,9.708l0.355,0.663
	c1.122,2.5,4.464,4.439,7.075,5.826c2.603,1.387,4.171,0.879,4.091,0.293C159.751,125.379,154.175,122.979,153.092,122.392z"/>
</svg>
