<?xml version="1.0" encoding="utf-8"?>
<!-- Generator: Adobe Illustrator 16.0.0, SVG Export Plug-In . SVG Version: 6.00 Build 0)  -->
<!DOCTYPE svg PUBLIC "-//W3C//DTD SVG 1.1//EN" "http://www.w3.org/Graphics/SVG/1.1/DTD/svg11.dtd">
<svg version="1.1" id="Layer_1" xmlns="http://www.w3.org/2000/svg" xmlns:xlink="http://www.w3.org/1999/xlink" x="0px" y="0px"
	 width="200px" height="200px" viewBox="0 0 200 200" enable-background="new 0 0 200 200" xml:space="preserve">
<g>
	<path fill="#23356E" d="M178.331,104.7c-2.535-1.823-5.342-3.108-8.211-4.121c-5.758-1.984-11.828-2.896-17.783-2.824
		c-5.941,0.071-11.904,1.336-16.828,3.664c-2.375,1.225-5.27,2.399-6.363,5.628c-0.445,3.806,3.295,5.293,5.416,6.195
		c9.859,3.168,19.977,2.439,26.646-1.51c1.361-1.032,3.67-2.073,3.115-4.614c-1.309-2.045-3.316-2.023-4.779-2.338
		c-3.119-0.366-5.75-0.031-7.82,0.455c-4.342,0.961-5.264,3.432-4.877,3.238c0.055-0.04,1.482-2.003,5.783-2.499
		c2.049-0.264,4.697-0.384,7.477,0.231c1.314,0.275,2.93,1.032,2.564,1.854c-0.338,0.961-1.922,1.934-3.416,2.702
		c-6.117,2.945-16.068,3.25-24.338-0.152c-1.984-0.95-3.447-2.357-2.477-3.563c0.877-1.396,3.229-2.571,5.471-3.473
		c4.646-1.892,9.871-2.792,15.316-2.631c5.4,0.11,10.961,1.134,16.002,3.098c4.738,1.741,10.346,5.425,9.223,8.676
		c-1.354,3.299-7.633,5.313-12.811,6.467c-5.475,1.234-11.088,1.871-16.504,1.771c-6.637-0.051-12.703-1.963-18.129-4.332
		c-4.059-2.025-7.563-4.373-10.248-7.096c1.938,0.202,3.799,0.081,4.984-0.618c-4.201-1.537-5.537-5.477-4.996-7.805
		c0.912,0.427,1.928,0.933,3.053,1.561c-1.154-1.712-3.002-11.207-11.275-18.261c0.77-0.133,1.645-0.162,2.586,0.04
		c-0.76-1.832-11.57-6.63-18.834-7.602c0.801-0.313,2.021-0.831,3.18-0.962c-13.544-3.32-22.224,0.384-23.99,0.769
		c0,0-0.425-0.445,0.476-1.801c-6.256,1.225-10.739,3.886-15.011,6.812c0.223-0.869,0.501-1.659,0.688-2.024
		c-5.278,2.277-10.092,8.654-16.104,11.135l1.164-0.435c-0.491,0.191-0.998,0.384-1.514,0.566c0.116-0.041,0.232-0.092,0.35-0.132
		l-0.973,0.365c0.744-2.369-0.602-4.05-1.457-4.394c-2.237,0.748-4.605,3.704-6.367,6.965c-1.902-0.507-1.508-3.25-2.557-3.646
		c-2.084,2.502-2.373,6.337-2.373,6.337c-1.018,0.579-1.406,0.75-3.203,1.832l0.015-2.296l-1.63,3.076c0,0-1.352-0.375-2.627-2.419
		c-0.436,1.134,1.145,2.996,1.453,3.33c-0.011,0.011-0.025,0.021-0.031,0.03c-0.01,0.01-0.024,0.021-0.029,0.03l-3.255,0.021
		l2.562,0.882c-2.688,3.35-6.488,6.791-7.627,7.864c-1.033,0.962,0.283,1.7,1.275,1.853c0.369,0.06,1.832,1.022,2.738,1.427
		c0.074-0.111,0.643,0.02,0.586-0.041c-0.637-0.587-0.846-1.964-0.223-2.094c1.488-0.325,1.555,0.688,1.66,1.162
		c0.132,0.678-0.84,0.699-0.84,0.699s1.589,0.93,2.672,0.525c3.244-1.203,6.054-0.819,8.281-1.042
		c0.769-0.07,1.938-0.06,3.046,0.031l0,0c1.544,0.091,2.783,0.191,3.897,0.444c4.701,2.582,6.159,6.752,5.79,8.291
		c-0.025,0.029-0.041,0.051-0.065,0.08c-0.537,0.557-4.506,1.832-5.214,2.783c1.134-0.516,2.435-0.375,2.435-0.375
		s-3.32,1.275-3.234,2.582c0.344-0.547,2.799-1.902,3.857-1.691c-0.699,0.689-1.109,1.246-0.957,2.107
		c0.39-1.104,1.984-1.803,2.91-1.66c0.035,0.213-0.977,0.869-0.855,1.164c2.84-1.145,4.256-3.279,3.902-3.857
		c-0.451-0.729-0.34-1.801,0.213-2.754c1.301,0.285,3.598,0.619,5.961,0.174c-1.791-0.557-2.936-1.336-3.664-2.086
		c0.404-0.141,0.836-0.232,1.301-0.264c0,0,0.143,0.031,0.395,0.051c0.354,0.305,3.063,2.48,6.696,2.996
		c-0.81-0.506-1.771-1.771-1.842-2.58c1.083,1.002,4.241,1.902,5.497,1.934c-1.043-0.822-0.855-1.832-0.826-1.975
		c0.016,0,0.035,0,0.051-0.01c0.38,0.111,2.941,0.758,4.955,0.313c-0.512-0.092-0.916-0.385-1.234-0.729
		c2.555-0.445,5.051-1.225,7.024-2.541c1.169-0.525,2.282-0.869,3.33-1.033l3.274,1.916c-3.335,1.193-10.583,0.768-9.976,3.178
		c0.896-0.941,2.885-1.176,2.885-1.176c-0.03,0.637-2.368,2.156-3.093,2.176c2.248,0.234,4.561-1.455,4.561-1.455l-0.881,1.922
		c-0.521,0.436,2.881-1.883,2.981-2.084c-0.273,0.516-0.258,1.73-0.01,2.113c0,0,1.397-2.701,5.526-3.502l2.621,1.529
		c-0.035,0.426-0.156,0.861-0.359,1.297c-1.725,1.82-10.385,0.951-9.691,3.672c0.896-0.939,2.668-1.152,2.668-1.152
		c-0.031,0.637-2.668,2.035-3.387,2.195c1.853,0.111,4.57-1.457,4.57-1.457l-0.891,1.924c-0.516,0.434,2.885-1.883,2.98-2.086
		c-0.268,0.518-0.264,1.74-0.004,2.115c0,0,0.43-2.318,4.579-3.107v-0.01c6.302-0.729,0.587-6.629,14.638-7.055
		c2.191-0.07,4.924-0.324,7.389-1.055c9.764,5.641,22.197,9.982,30.92,11.512c3.604,0.748,7.357,1.152,11.174,1.102
		c6.033,0.01,12.061-0.809,17.936-2.236c2.953-0.719,5.912-1.588,8.766-2.975c2.729-1.348,5.947-3.332,6.783-6.975
		C183.413,109.214,180.718,106.46,178.331,104.7"/>
	<path fill="#23356E" d="M39.007,111.834c0.006,2.35-0.501,2.795-1.352,3.422c-0.379,0.273-6.599,2.207-10.283,2.682
		c0.536,0.225,5.061-0.02,5.061-0.02c-1.563,0.355-3.087,0.789-4.438,1.6c2.384-0.496,4.236-0.689,5.958-0.811l-1.286,0.973
		l6.128-1.184c0,0,1.24-3.777,3.067-5.457C41.184,112.564,40.565,111.875,39.007,111.834"/>
</g>
</svg>
